<?xml version="1.0" standalone="no"?>
<!DOCTYPE svg PUBLIC "-//W3C//DTD SVG 1.1//EN" "http://www.w3.org/Graphics/SVG/1.1/DTD/svg11.dtd">
<svg xmlns="http://www.w3.org/2000/svg">
<defs >
<font id="VarelaRound" horiz-adv-x="576" ><font-face
    font-family="Varela Round"
    units-per-em="1000"
    panose-1="2 0 0 0 0 0 0 0 0 0"
    ascent="918"
    descent="-286"
    alphabetic="0" />
<glyph unicode=" " glyph-name="space" horiz-adv-x="260" />
<glyph unicode="!" glyph-name="exclam" horiz-adv-x="281" d="M141 193Q109 193 107 222L89 552V651Q89 673 104 688T141 703Q163 703 177 688T192 651V552L174 222Q172 193 141 193ZM82 80T99 97T141 115T183 98T201 56T184 14T142 -4T100 13T82 55Z" />
<glyph unicode="&quot;" glyph-name="quotedbl" horiz-adv-x="411" d="M70 578T67 602T62 647T60 692T75 732T111 747Q131 747 146 732Q162 717 162 693T161 647T156 602T148 556T140 520Q135 492 111 492Q99 492 92 499T82 520T75 555ZM259 578T256 602T251 647T249
692T264 732T300 747Q320 747 335 732Q351 717 351 693T350 647T345 602T337 556T330 520Q324 492 300 492Q288 492 281 499T271 520T264 555Z" />
<glyph unicode="#" glyph-name="numbersign" horiz-adv-x="612" d="M145 -5T135 5T124 24T148 182H71Q57 182 47 192T36 217Q36 231 46 241T71 252H159L183 404H106Q92 404 82 414T71 439Q71 453 81 463T106 474H194L219 632Q221 643 230 651T255 660T279 650T289
632T289 621T286 603T279 558L265 474H392L417 632Q419 643 428 651T453 660T477 650T487 632T487 621T484 603T477 558L463 474H540Q554 474 564 464T575 439Q575 425 565 415T540 404H452L428 252H505Q519 252 529 242T540 217Q540 203 530 193T505 182H417L392
24Q390 13 381 4T357 -5Q343 -5 333 5T322 24T346 182H219L194 24Q192 13 183 4T159 -5Q145 -5 135 5ZM381 404H254L230 252H357L381 404Z" />
<glyph unicode="$" glyph-name="dollar" horiz-adv-x="612" d="M334 387Q376 377 418 364T494 329Q569 279 569 185Q569 104 505 50Q441 -4 334 -10V-88Q334 -98 328 -104T311 -110Q289 -110 289 -88V-10Q176 -5 75 38Q47 51 47 72T58 106T83 118T118 109Q188
78 289 75V304Q178 333 137 360T75 420T54 498T69 578T114 642Q178 701 289 707V785Q289 795 295 801T311 808Q321 808 327 802T334 785V708Q435 704 512 675Q540 665 540 635Q540 620 530 607T507 594T473 602Q412 623 334 625V387ZM144 510Q144 444 232 414Q259
405 289 398V623Q226 617 185 589T144 510ZM334 76Q437 83 468 141Q479 162 479 187T468 228T436 256Q407 274 334 293V76Z" />
<glyph unicode="%" glyph-name="percent" horiz-adv-x="814" d="M204 715Q281 715 324 663Q365 614 365 536T324 409Q281 357 204 357Q128 357 84 409Q43 456 43 536Q43 659 134 701Q164 715 204 715ZM204 422Q249 422 272 455T295 536Q295 584 272 617T204 650Q159
650 136 617T113 536Q113 488 136 455T204 422ZM610 340Q687 340 730 288Q771 239 771 161T730 34Q687 -18 610 -18Q534 -18 490 34Q449 81 449 161Q449 284 540 326Q570 340 610 340ZM610 47Q655 47 678 80T701 161Q701 209 678 242T610 275Q565 275 542 242T519
161Q519 113 542 80T610 47ZM626 707T635 699T645 679T638 655L234 8Q223 -10 207 -10T181 -1T171 20T176 40L583 691Q593 707 609 707Z" />
<glyph unicode="&amp;" glyph-name="ampersand" horiz-adv-x="732" d="M521 68Q430 -10 316 -10Q193 -10 127 56Q71 112 71 196Q71 264 112 321Q144 364 184 388Q158 420 141 452T123 526T136 600T173 656Q225 708 310 708Q377 708 443 664Q461 654 461 637T451
610T430 599T403 607Q360 630 324 630T268 622T234 601Q207 575 207 545T212 498T230 464Q247 438 307 383L516 186Q533 212 543 235T564 265T590 272T618 261T630 235Q630 203 577 129L644 65Q660 51 660 34T650 5T620 -8T588 4L521 68ZM239 332Q184 297 164 240Q157
219 157 192T169 142T201 102Q243 67 300 67T395 83T462 123L239 332Z" />
<glyph unicode="&apos;" glyph-name="quotesingle" horiz-adv-x="238" d="M158 743T174 727T191 687V628Q191 575 164 534Q145 504 109 482Q104 477 92 477T71 486T63 509T78 532Q100 545 114 564T129 625H125Q102 625 86 641T69 681V687Q69 710 85 726T125 743H135Q158
743 174 727Z" />
<glyph unicode="(" glyph-name="parenleft" horiz-adv-x="312" d="M259 -93Q265 -104 265 -118T253 -143T227 -154T206 -149T192 -136Q120 -50 86 65T51 307Q51 433 85 548T192 750Q199 758 205 763T226 768T253 757T265 732T259 707Q142 511 142 307Q142 103 259 -93Z" />
<glyph unicode=")" glyph-name="parenright" horiz-adv-x="312" d="M72 -154T60 -143T48 -118T54 -93Q171 103 171 307Q171 511 54 707Q48 717 48 731T60 757T86 768T107 763T121 750Q193 664 227 549T262 307Q262 181 228 66T121 -136Q114 -144 108 -149T87 -154Z" />
<glyph unicode="*" glyph-name="asterisk" horiz-adv-x="417" d="M236 543L336 504Q350 497 350 484Q350 457 328 450Q314 445 303 454Q300 456 276 475T222 519Q228 481 231 460L236 428Q237 418 237 416T238 407T229 392T208 384Q197 384 188 392T178 407V416Q178
421 183 451T194 519Q110 452 105 449T88 450Q66 457 66 477T80 504Q81 504 83 505T94 510T124 521T180 543L80 582Q66 591 66 603Q66 630 88 637Q99 641 110 634Q111 634 137 613T194 567Q178 668 178 670V673Q178 686 187 694T208 702Q219 702 228 694T238 679T238
670T236 658L231 626Q228 605 222 567Q306 634 306 634Q317 641 328 637Q350 630 350 611T336 582Q335 582 333 581T322 576T292 565T236 543Z" />
<glyph unicode="+" glyph-name="plus" horiz-adv-x="562" d="M500 384T511 373T522 345Q522 328 511 318T483 307H320V143Q320 126 309 115T281 104Q264 104 253 115T242 143V307H78Q61 307 51 317T40 345Q40 362 50 373T78 384H242V548Q242 565 253 576T281 587Q298
587 309 576T320 548V384H483Q500 384 511 373Z" />
<glyph unicode="," glyph-name="comma" horiz-adv-x="260" d="M158 115T174 99T191 59V0Q191 -53 164 -94Q145 -124 109 -146Q104 -151 92 -151T71 -142T63 -119T78 -96Q100 -83 114 -64T129 -3H125Q102 -3 86 13T69 53V59Q69 82 85 98T125 115H135Q158 115 174 99Z" />
<glyph unicode="-" glyph-name="hyphen" horiz-adv-x="408" d="M315 321T327 309T339 280Q339 263 327 252T298 240H109Q92 240 81 251T69 280Q69 297 80 309T109 321H298Q315 321 327 309Z" />
<glyph unicode="." glyph-name="period" horiz-adv-x="260" d="M158 115T174 99T191 59V53Q191 30 175 14T135 -3H125Q102 -3 86 13T69 53V59Q69 82 85 98T125 115H135Q158 115 174 99Z" />
<glyph unicode="/" glyph-name="slash" horiz-adv-x="443" d="M316 736Q325 764 356 764Q373 764 384 752T396 730Q396 714 393 708L128 -67Q119 -95 89 -95Q71 -95 60 -83T48 -60Q48 -45 51 -39L316 736Z" />
<glyph unicode="0" glyph-name="zero" horiz-adv-x="628" d="M314 708Q381 708 432 682T517 608Q585 514 585 349Q585 183 517 89Q445 -10 314 -10T111 89Q43 183 43 349Q43 514 111 608Q182 708 314 708ZM314 74Q402 74 448 148Q494 221 494 349Q494 476 448
549Q402 623 314 623T180 549T134 349Q134 221 180 148Q226 74 314 74Z" />
<glyph unicode="1" glyph-name="one" horiz-adv-x="628" d="M504 85T516 73T529 42Q529 24 517 12T486 0H177Q159 0 147 12T135 42Q135 60 147 72T177 85H296V592L194 542Q189 540 184 538T166 536T140 548T128 583T154 620L290 691Q304 698 318 698H339Q359 698
373 684T387 650V85H486Q504 85 516 73Z" />
<glyph unicode="2" glyph-name="two" horiz-adv-x="628" d="M522 85T534 73T547 42Q547 24 535 12T504 0H118Q95 0 80 14T65 52Q65 105 94 147T168 225T265 293T361 357T435 423T465 491T457 547T430 586Q390 622 307 622Q218 622 136 586Q126 581 113 581T90
592T79 624T101 657Q203 708 323 708Q421 708 486 652Q553 595 553 505Q553 414 462 330Q422 294 375 262T283 201T204 143T156 85H504Q522 85 534 73Z" />
<glyph unicode="3" glyph-name="three" horiz-adv-x="628" d="M528 528Q528 407 407 361Q502 338 538 261Q553 229 553 182T533 99T478 39Q407 -10 294 -10Q184 -10 85 30Q59 42 59 68Q59 84 70 97T94 110T128 102Q190 77 277 77Q402 77 446 134Q462 155 462 188Q462
314 241 314H225Q208 314 196 326T183 356Q183 373 195 385T225 398H231Q437 398 437 519Q437 566 399 594T279 623Q197 623 124 590Q116 586 104 586T80 596T69 626T89 657Q183 708 293 708T465 661T528 528Z" />
<glyph unicode="4" glyph-name="four" horiz-adv-x="628" d="M555 257Q572 257 584 245T596 216Q596 199 584 188T555 176H479V40Q479 21 466 8T433 -5Q414 -5 401 8T388 40V176H83Q59 176 42 192T25 233V242Q25 263 37 278L351 679Q368 703 401 703H421Q447 703
463 686T479 645V257H555ZM388 257V600L122 257H388Z" />
<glyph unicode="5" glyph-name="five" horiz-adv-x="628" d="M169 401Q244 442 338 442Q449 442 512 378Q571 317 571 216Q571 58 420 8Q368 -10 298 -10Q176 -10 84 48Q64 60 64 80T75 114T100 127T136 116Q205 80 285 80Q428 80 466 153Q480 180 480 221Q480
283 439 319T336 355Q243 355 171 312Q150 300 129 300T89 315T70 358Q70 372 72 382L117 648Q120 671 134 684T170 698H491Q509 698 521 686T534 655Q534 637 522 625T491 613H201L169 401Z" />
<glyph unicode="6" glyph-name="six" horiz-adv-x="628" d="M278 444Q310 452 356 452T444 436T516 388Q580 323 580 217Q580 120 514 56Q446 -10 333 -10Q219 -10 152 52Q73 127 62 274Q59 314 59 360T73 470T121 586T210 673T339 708T454 695T526 665Q547 653
547 633T536 601T511 588T480 596Q426 620 359 620T251 593T188 526Q152 461 146 364Q190 422 278 444ZM254 90Q287 75 328 75T398 86T447 118Q489 160 489 222T452 327T340 369Q262 369 210 329Q174 302 151 259Q169 129 254 90Z" />
<glyph unicode="7" glyph-name="seven" horiz-adv-x="628" d="M535 698T551 683T567 646T557 601L273 20Q259 -5 235 -5T198 7T185 36T191 64L466 611H103Q85 611 73 623T60 654Q60 672 72 685T103 698H511Q535 698 551 683Z" />
<glyph unicode="8" glyph-name="eight" horiz-adv-x="628" d="M548 525Q548 495 539 471T513 427Q483 392 432 374Q499 351 540 307T581 185Q581 106 522 54Q450 -10 314 -10Q178 -10 106 54Q47 106 47 184T88 306T196 374Q116 402 90 470Q80 495 80 525T92 587T132
646Q195 708 314 708Q433 708 496 646Q548 595 548 525ZM314 70Q405 70 452 116Q490 151 490 190T476 254T436 296Q388 330 315 330T192 296Q138 259 138 195Q138 151 176 116Q223 70 314 70ZM314 412Q388 412 426 449Q457 479 457 521T422 596T314 628Q241 628
206 596T171 522T205 446T314 412Z" />
<glyph unicode="9" glyph-name="nine" horiz-adv-x="628" d="M350 254Q318 246 272 246T184 262T112 310Q48 375 48 481Q48 579 114 642Q184 708 295 708Q409 708 476 646Q555 571 566 424Q569 384 569 338T555 228T507 112T417 25T289 -10T174 3T102 33Q81 45
81 65T92 97T117 110T148 102Q204 78 270 78T376 105T440 172Q476 237 482 334Q438 276 350 254ZM374 608Q341 623 300 623T230 612T181 580Q139 538 139 476T176 371T288 329Q366 329 418 369Q454 396 477 439Q459 569 374 608Z" />
<glyph unicode=":" glyph-name="colon" horiz-adv-x="260" d="M135 115Q158 115 174 99T191 59V53Q191 30 175 14T135 -3H125Q102 -3 86 13T69 53V59Q69 82 85 98T125 115H135ZM135 513Q158 513 174 497T191 457V451Q191 428 175 412T135 395H125Q102 395 86 411T69
451V457Q69 480 85 496T125 513H135Z" />
<glyph unicode=";" glyph-name="semicolon" horiz-adv-x="260" d="M135 115Q158 115 174 99T191 59V0Q191 -53 164 -94Q145 -124 109 -146Q104 -151 92 -151T71 -142T63 -119T78 -96Q100 -83 114 -64T129 -3H125Q102 -3 86 13T69 53V59Q69 82 85 98T125 115H135ZM135
513Q158 513 174 497T191 457V451Q191 428 175 412T135 395H125Q102 395 86 411T69 451V457Q69 480 85 496T125 513H135Z" />
<glyph unicode="&lt;" glyph-name="less" horiz-adv-x="580" d="M526 81T515 70T490 58T470 61L71 240Q35 257 35 292V300Q35 335 71 352L470 531Q477 534 490 534T514 523T526 496Q526 467 499 456L139 296L499 136Q511 131 518 121T526 96Z" />
<glyph unicode="=" glyph-name="equal" horiz-adv-x="712" d="M112 404Q95 404 84 415T73 443Q73 460 84 471T112 482H600Q617 482 628 471T639 443Q639 426 628 415T600 404H112ZM600 258Q617 258 628 247T639 219Q639 202 628 191T600 180H112Q95 180 84 191T73
219Q73 236 84 247T112 258H600Z" />
<glyph unicode="&gt;" glyph-name="greater" horiz-adv-x="580" d="M110 61Q102 58 90 58T66 69T54 96Q54 125 81 136L441 296L81 456Q69 461 62 471T54 496T65 522T89 534T110 531L509 352Q545 335 545 300V292Q545 257 509 240L110 61Z" />
<glyph unicode="?" glyph-name="question" horiz-adv-x="497" d="M362 514Q362 623 219 623Q141 623 91 590Q78 582 64 582T38 593T26 620Q26 645 51 660Q129 708 227 708Q330 708 390 657Q452 605 452 519Q452 429 358 360Q303 319 279 280Q265 257 265 233T252
197T220 186T190 197T177 225Q177 324 270 396Q330 444 346 466T362 514ZM160 80T177 97T219 115T261 98T279 56T262 14T220 -4T178 13T160 55Z" />
<glyph unicode="@" glyph-name="at" horiz-adv-x="898" d="M458 513Q532 513 586 462L589 479Q591 493 601 501T626 510T651 500T662 480V469Q662 467 661 462L628 272Q621 230 621 206T632 162T671 142Q734 142 767 197T800 333T772 469T696 561Q603 635 473
635Q397 635 330 605T211 524T131 406T101 273T120 156T178 62Q263 -31 400 -31Q465 -31 502 -21Q548 -9 581 4T623 17T638 11T645 -9T631 -30Q525 -83 400 -83Q320 -83 255 -55T144 21T74 131T49 271T83 425T174 560T309 653T468 688T619 663T741 592T823 483T854
342Q854 242 812 174Q761 95 668 95Q593 95 566 142Q559 156 556 169Q494 94 391 94Q311 94 264 144Q221 192 221 260T241 373T295 450Q362 513 458 513ZM575 396Q532 442 462 442Q394 442 348 400Q298 354 298 280Q298 221 332 190Q362 163 413 163Q498 163 537
234Q552 261 559 303L575 396Z" />
<glyph unicode="A" glyph-name="A" horiz-adv-x="697" d="M667 60Q672 48 672 35T660 8T622 -5T584 23L519 179H179L114 23Q102 -5 76 -5T38 8T26 34T31 60L286 662Q304 703 344 703H354Q394 703 412 662L667 60ZM484 262L349 587L214 262H484Z" />
<glyph unicode="B" glyph-name="B" horiz-adv-x="693" d="M602 517Q602 409 504 363Q599 331 630 258Q641 230 641 191T627 116T582 54Q518 0 384 0H142Q123 0 110 13T97 45V652Q97 671 110 684T142 698H378Q488 698 545 648T602 517ZM515 510Q515 557 478 585T371
613H188V396H354Q483 396 508 465Q515 486 515 510ZM375 85Q517 85 544 153Q553 174 553 200Q553 260 508 287T376 314H188V85H375Z" />
<glyph unicode="C" glyph-name="C" horiz-adv-x="698" d="M598 124Q606 128 620 128T645 117T656 90Q656 63 634 52Q587 26 534 8T406 -10T267 14T156 86Q56 184 56 349Q56 514 156 612Q253 708 406 708Q480 708 533 690T615 657T650 632T656 608T646 582T621
570T598 574Q558 595 516 608T412 621T299 600T214 542Q147 469 147 349Q147 229 214 156Q287 77 415 77Q474 77 516 90T598 124Z" />
<glyph unicode="D" glyph-name="D" horiz-adv-x="750" d="M343 698Q510 698 609 586Q653 537 674 475T696 349Q696 286 675 224T609 112Q510 0 343 0H142Q123 0 110 13T97 45V652Q97 671 110 684T142 698H343ZM332 85Q456 85 532 158Q606 231 606 349T532 540Q456
613 332 613H188V85H332Z" />
<glyph unicode="E" glyph-name="E" horiz-adv-x="638" d="M561 85T573 73T586 42Q586 24 574 12T543 0H142Q123 0 110 13T97 45V652Q97 671 110 684T142 698H543Q561 698 573 686T586 655Q586 637 574 625T543 613H188V392H507Q525 392 537 380T550 349Q550 331
538 319T507 307H188V85H543Q561 85 573 73Z" />
<glyph unicode="F" glyph-name="F" horiz-adv-x="610" d="M188 613V392H496Q514 392 526 380T539 349Q539 331 527 319T496 307H188V40Q188 21 175 8T142 -5Q123 -5 110 8T97 40V652Q97 671 110 684T142 698H531Q549 698 561 686T574 655Q574 637 562 625T531 613H188Z" />
<glyph unicode="G" glyph-name="G" horiz-adv-x="744" d="M418 76Q512 76 593 120V301H428Q411 301 399 313T387 342Q387 359 399 371T428 383H625Q645 383 659 369T673 335V108Q673 87 663 71T635 46Q523 -10 406 -10Q249 -10 152 90Q55 191 55 348Q55 507 156
610Q253 708 403 708Q488 708 546 687T652 636Q672 625 672 605T661 572T635 559T609 564Q512 620 413 620Q297 620 223 550Q146 476 146 348Q146 230 218 154Q292 76 418 76Z" />
<glyph unicode="H" glyph-name="H" horiz-adv-x="755" d="M612 703Q631 703 644 690T658 657V40Q658 21 645 8T612 -5Q593 -5 580 8T567 40V306H188V40Q188 21 175 8T142 -5Q123 -5 110 8T97 40V657Q97 676 110 689T142 703Q161 703 174 690T188 657V391H567V657Q567
676 580 689T612 703Z" />
<glyph unicode="I" glyph-name="I" horiz-adv-x="285" d="M142 703Q161 703 174 690T188 657V40Q188 21 175 8T142 -5Q123 -5 110 8T97 40V657Q97 676 110 689T142 703Z" />
<glyph unicode="J" glyph-name="J" horiz-adv-x="466" d="M327 703Q346 703 359 690T373 657V230Q373 99 308 38Q256 -10 167 -10Q94 -10 34 24Q12 36 12 56T22 89T46 102T74 95Q112 76 147 76T205 81T244 103Q282 139 282 224V657Q282 676 295 689T327 703Z" />
<glyph unicode="K" glyph-name="K" horiz-adv-x="670" d="M629 68Q640 54 640 37T628 8T594 -5T560 13L302 342L188 227V40Q188 21 175 8T142 -5Q123 -5 110 8T97 40V657Q97 676 110 689T142 703Q161 703 174 690T188 657V339L530 687Q543 703 562 703T594 692T606
662T595 632L364 402L629 68Z" />
<glyph unicode="L" glyph-name="L" d="M534 91T547 78T561 45Q561 26 548 13T515 0H160Q134 0 116 18T97 63V657Q97 676 110 689T142 703Q161 703 174 690T188 657V91H515Q534 91 547 78Z" />
<glyph unicode="M" glyph-name="M" horiz-adv-x="966" d="M831 703T850 684T869 637V40Q869 21 856 8T824 -5Q805 -5 792 8T778 40V608L547 37Q539 18 522 7T483 -5Q461 -5 444 6T419 37L188 608V40Q188 21 175 8T142 -5Q123 -5 110 8T97 40V637Q97 664 116 683T162
703H195Q215 703 231 691T256 661L483 95L710 661Q718 679 734 691T771 703H804Q831 703 850 684Z" />
<glyph unicode="N" glyph-name="N" horiz-adv-x="803" d="M660 703Q679 703 692 690T706 657V60Q706 33 687 14T640 -5H628Q595 -5 575 22L188 581V40Q188 21 175 8T142 -5Q123 -5 110 8T97 40V637Q97 664 116 683T162 703H175Q206 703 230 673L615 117V657Q615
676 628 689T660 703Z" />
<glyph unicode="O" glyph-name="O" horiz-adv-x="811" d="M406 708Q564 708 660 607Q753 508 757 349Q753 190 660 91Q564 -10 406 -10Q247 -10 152 91Q57 191 55 349Q57 507 152 607Q247 708 406 708ZM406 75Q528 75 598 154Q666 230 666 349Q666 468 598 544Q528
623 406 623Q284 623 214 544Q146 468 146 349Q146 230 214 154Q284 75 406 75Z" />
<glyph unicode="P" glyph-name="P" horiz-adv-x="669" d="M370 698Q509 698 579 626Q637 568 637 476Q637 384 579 326Q509 254 370 254H188V40Q188 21 175 8T142 -5Q123 -5 110 8T97 40V652Q97 671 110 684T142 698H370ZM361 340Q464 340 510 384Q546 418 546
476Q546 569 453 600Q417 612 361 612H188V340H361Z" />
<glyph unicode="Q" glyph-name="Q" horiz-adv-x="812" d="M466 -6Q438 -10 406 -10Q247 -10 152 91Q57 191 55 349Q57 507 152 607Q247 708 406 708Q564 708 660 607Q753 508 757 349Q755 231 701 144T550 17L638 -80Q650 -92 650 -109T638 -139T607 -152T575
-136L466 -6ZM406 75Q528 75 598 154Q666 230 666 349Q666 468 598 544Q528 623 406 623Q284 623 214 544Q146 468 146 349Q146 230 214 154Q284 75 406 75Z" />
<glyph unicode="R" glyph-name="R" horiz-adv-x="712" d="M641 40Q641 21 628 8T595 -5T563 7T550 40V70Q550 151 532 189T483 249T395 272H188V40Q188 21 175 8T142 -5Q123 -5 110 8T97 40V652Q97 671 110 684T142 698H375Q512 698 582 640Q647 585 647 495Q647
437 615 387T516 314Q588 295 620 210Q641 153 641 86V40ZM369 358Q453 358 504 391T556 488Q556 548 516 578Q468 612 364 612H188V358H369Z" />
<glyph unicode="S" glyph-name="S" horiz-adv-x="616" d="M308 76Q483 76 483 191Q483 239 416 268Q387 280 349 289T271 310T193 335T124 371Q58 421 58 503Q58 591 124 647Q196 708 317 708Q426 708 516 675Q544 665 544 635Q544 620 534 607T511 593T476 601Q411
624 327 624Q250 624 200 595Q149 565 149 510Q149 453 215 424Q245 410 283 401T361 382T439 359T507 323Q573 275 573 185Q573 99 504 45Q433 -10 317 -10Q190 -10 79 38Q68 43 60 54T51 80T62 108T87 121T123 112T194 89T308 76Z" />
<glyph unicode="T" glyph-name="T" horiz-adv-x="611" d="M572 698T584 686T597 655Q597 637 585 625T554 613H351V40Q351 21 338 8T305 -5Q286 -5 273 8T260 40V613H56Q38 613 26 625T14 655Q14 673 26 685T56 698H554Q572 698 584 686Z" />
<glyph unicode="U" glyph-name="U" horiz-adv-x="758" d="M620 703Q639 703 652 690T666 657V262Q666 131 572 56Q491 -10 379 -10Q265 -10 185 56Q92 131 92 262V657Q92 676 105 689T137 703Q156 703 169 690T183 657V259Q183 170 244 119Q300 73 379 73Q458
73 514 119Q575 170 575 259V657Q575 676 588 689T620 703Z" />
<glyph unicode="V" glyph-name="V" horiz-adv-x="694" d="M347 86L582 672Q595 703 620 703T658 690T670 662T667 640L420 41Q399 -5 358 -5H336Q295 -5 274 41L27 640Q24 647 24 662T36 690T66 703Q99 703 112 672L347 86Z" />
<glyph unicode="W" glyph-name="W" horiz-adv-x="1007" d="M504 703Q522 703 536 693T556 665L725 115L893 667Q904 703 938 703Q958 703 970 692T982 667T979 642L783 40Q767 -5 724 -5Q704 -5 688 7T665 40L504 550L343 40Q337 20 321 8T284 -5Q241 -5 225 40L29
642Q26 653 26 666T38 691T68 703Q104 703 115 667L283 115L452 665Q457 682 471 692T504 703Z" />
<glyph unicode="X" glyph-name="X" horiz-adv-x="669" d="M617 66Q626 55 626 39T614 9T586 -5Q559 -5 545 14L331 283L120 13Q105 -5 87 -5T56 7T43 36T52 65L283 349L54 631Q45 643 45 660T57 690T91 703T126 685L337 417L548 687Q559 703 579 703T612 691T625
662T617 635L386 350L617 66Z" />
<glyph unicode="Y" glyph-name="Y" horiz-adv-x="645" d="M532 680Q547 703 569 703T604 690T616 660T608 630L368 295V40Q368 21 355 8T323 -5Q304 -5 291 8T277 40V295L38 630Q30 643 30 660T42 690T76 703T114 680L323 376L532 680Z" />
<glyph unicode="Z" glyph-name="Z" horiz-adv-x="638" d="M568 85T580 73T593 42Q593 24 581 12T550 0H105Q81 0 64 17T47 57T59 95L477 611H92Q74 611 62 623T49 654Q49 672 61 685T92 698H526Q555 698 571 680T587 638T571 596L158 85H550Q568 85 580 73Z" />
<glyph unicode="[" glyph-name="bracketleft" horiz-adv-x="322" d="M273 -61T283 -71T294 -96Q294 -110 284 -121T258 -132H131Q113 -132 100 -119T87 -88V688Q87 706 100 719T131 732H258Q273 732 283 722T294 696Q294 681 284 671T258 660H166V-61H258Q273
-61 283 -71Z" />
<glyph unicode="\" glyph-name="backslash" horiz-adv-x="443" d="M47 740T58 752T86 764Q118 764 127 736L392 -39Q395 -45 395 -58T384 -83T356 -95Q324 -95 315 -67L50 708Q47 714 47 727Z" />
<glyph unicode="]" glyph-name="bracketright" horiz-adv-x="322" d="M156 -61V660H64Q49 660 39 670T28 696Q28 711 38 721T64 732H191Q209 732 222 719T235 688V-88Q235 -106 222 -119T191 -132H64Q49 -132 39 -121T28 -96Q28 -82 38 -72T64 -61H156Z" />
<glyph unicode="^" glyph-name="asciicircum" horiz-adv-x="524" d="M280 702Q300 702 310 692T329 668L434 469Q436 464 438 460T440 447T430 426T404 415Q384 415 374 431Q372 435 361 453T327 510T261 616Q219 548 196 511T162 455T148 432Q138 415 120 415T92
426T82 446T84 460T88 469L193 668Q201 682 211 692T242 702H280Z" />
<glyph unicode="_" glyph-name="underscore" horiz-adv-x="663" d="M592 -81T601 -90T611 -114Q611 -128 602 -137T578 -147H85Q71 -147 62 -138T52 -114Q52 -100 61 -91T85 -81H578Q592 -81 601 -90Z" />
<glyph unicode="`" glyph-name="grave" horiz-adv-x="246" d="M69 685Q69 722 109 722Q129 722 139 703L190 613Q197 606 197 594T190 575T170 567T148 578L79 660Q69 671 69 685Z" />
<glyph unicode="a" glyph-name="a" horiz-adv-x="555" d="M98 484Q182 520 272 520Q374 520 430 458Q480 404 480 323V40Q480 21 467 8T434 -5Q415 -5 402 8T389 40V66Q362 38 317 14T201 -10Q132 -10 86 30Q38 72 38 140Q38 214 94 256Q155 302 268 302H389V310Q389
377 356 405T255 434Q197 434 122 410Q114 408 104 408T83 418T72 451T98 484ZM129 150Q129 70 235 70Q282 70 322 93T389 145V229H280Q209 229 169 211T129 150Z" />
<glyph unicode="b" glyph-name="b" horiz-adv-x="631" d="M170 444Q244 520 341 520T507 451Q583 375 583 255Q583 133 507 58Q437 -10 341 -10T170 66V40Q170 21 157 8T125 -5T92 8T79 40V689Q79 709 92 722T124 735T157 722T170 689V444ZM170 150Q238 75 328
75Q442 75 480 177Q492 211 492 255Q492 341 446 390Q402 435 328 435Q238 435 170 360V150Z" />
<glyph unicode="c" glyph-name="c" horiz-adv-x="536" d="M321 75Q377 75 428 103Q446 113 460 113T485 100T496 69T473 36Q402 -10 313 -10Q202 -10 126 60Q46 134 46 255Q46 376 126 450Q202 520 313 520Q373 520 411 505T473 474T496 441T485 410T463 397Q446
397 428 407Q377 435 321 435Q233 435 185 386T137 255Q137 174 185 125T321 75Z" />
<glyph unicode="d" glyph-name="d" horiz-adv-x="631" d="M461 66Q387 -10 290 -10Q194 -10 124 58Q48 133 48 255Q48 375 124 451Q193 520 290 520T461 444V689Q461 709 474 722T506 735T539 722T552 689V40Q552 21 539 8T507 -5T474 8T461 40V66ZM461 360Q393
435 303 435Q189 435 152 333Q139 299 139 255Q139 169 186 120Q229 75 303 75Q393 75 461 150V360Z" />
<glyph unicode="e" glyph-name="e" horiz-adv-x="570" d="M149 155T192 115T312 75T441 101Q459 110 472 110T497 99T509 74Q509 48 488 37T449 17T412 3Q367 -10 308 -10Q185 -10 117 59T49 255Q49 365 106 438Q170 520 288 520Q400 520 465 444Q526 373 526
268Q526 249 514 236T480 223H141Q149 155 192 115ZM288 443Q199 443 158 364Q143 336 141 297H436Q432 368 384 409Q344 443 288 443Z" />
<glyph unicode="f" glyph-name="f" horiz-adv-x="380" d="M340 647L290 653Q252 653 230 636T208 565V510H333Q350 510 361 499T372 471Q372 454 361 443T333 432H208V40Q208 21 195 8T163 -5T130 8T117 40V432H58Q41 432 30 443T19 471Q19 488 30 499T58 510H117V568Q117
655 166 702Q206 740 267 740Q314 740 354 720Q377 707 377 689T367 659T340 647Z" />
<glyph unicode="g" glyph-name="g" horiz-adv-x="631" d="M461 444V469Q461 488 474 501T506 515Q525 515 538 502T552 469V22Q552 -105 491 -172T317 -240Q197 -240 103 -188Q85 -177 85 -158T96 -125T120 -112T143 -116Q219 -154 308 -154Q461 -154 461 9V76Q390
0 290 0Q195 0 127 64Q48 137 48 260Q48 383 127 456Q195 520 292 520T461 444ZM461 363Q433 392 397 414T317 437T242 426T188 394Q139 348 139 260Q139 131 242 94Q273 83 317 83Q390 83 461 157V363Z" />
<glyph unicode="h" glyph-name="h" horiz-adv-x="609" d="M334 436Q246 436 170 340V40Q170 21 157 8T124 -5Q105 -5 92 8T79 40V689Q79 709 92 722T124 735Q143 735 156 722T170 689V428Q210 470 239 487Q296 520 347 520T432 505T488 462Q535 407 535 324V40Q535
21 522 8T489 -5Q470 -5 457 8T444 40V314Q444 371 419 403T334 436Z" />
<glyph unicode="i" glyph-name="i" horiz-adv-x="257" d="M83 489T96 502T128 515T161 502T174 469V40Q174 21 161 8T129 -5T96 8T83 40V469Q83 489 96 502ZM183 665Q183 644 168 629T132 614H126Q105 614 90 629T75 665V669Q75 690 90 705T126 720H132Q153 720
168 705T183 669V665Z" />
<glyph unicode="j" glyph-name="j" horiz-adv-x="257" d="M-8 -157L22 -160Q53 -160 63 -152Q83 -139 83 -101V468Q83 488 96 501T128 514T161 501T174 468V-103Q174 -200 104 -230Q79 -240 43 -240Q7 -240 -19 -232T-46 -195Q-46 -180 -36 -169T-8 -157ZM183
665Q183 644 168 629T132 614H126Q105 614 90 629T75 665V669Q75 690 90 705T126 720H132Q153 720 168 705T183 669V665Z" />
<glyph unicode="k" glyph-name="k" horiz-adv-x="546" d="M502 66Q512 53 512 36T499 7T470 -5Q446 -5 429 14L257 248L170 169V40Q170 21 157 8T124 -5Q105 -5 92 8T79 40V689Q79 708 92 721T124 735Q143 735 156 722T170 689V280L408 500Q424 513 444 513T473
499T482 474Q482 452 465 435L321 306L502 66Z" />
<glyph unicode="l" glyph-name="l" horiz-adv-x="265" d="M87 709T100 722T132 735T165 722T178 689V40Q178 21 165 8T133 -5T100 8T87 40V689Q87 709 100 722Z" />
<glyph unicode="m" glyph-name="m" horiz-adv-x="919" d="M170 428Q231 520 340 520Q394 520 438 488Q474 463 493 417Q521 461 548 479Q605 520 677 520Q758 520 804 458Q844 405 844 328V40Q844 21 831 8T798 -5Q779 -5 766 8T753 40V310Q753 373 731 404T651
436Q563 436 507 340V40Q507 21 494 8T461 -5Q442 -5 429 8T416 40V310Q416 373 394 404T314 436Q226 436 170 340V40Q170 21 157 8T124 -5Q105 -5 92 8T79 40V469Q79 488 92 501T124 515Q143 515 156 502T170 469V428Z" />
<glyph unicode="n" glyph-name="n" horiz-adv-x="609" d="M334 436Q246 436 170 340V40Q170 21 157 8T124 -5Q105 -5 92 8T79 40V469Q79 489 92 502T124 515Q143 515 156 502T170 469V428Q210 470 239 487Q296 520 347 520T432 505T488 462Q535 407 535 324V40Q535
21 522 8T489 -5Q470 -5 457 8T444 40V314Q444 371 419 403T334 436Z" />
<glyph unicode="o" glyph-name="o" horiz-adv-x="608" d="M304 520Q420 520 490 447Q560 373 560 255Q560 137 490 63Q420 -10 304 -10Q187 -10 118 63Q48 136 48 255Q48 374 118 447Q187 520 304 520ZM216 93T245 83T303 73T361 83T415 114Q469 163 469 256Q469
346 415 396Q370 437 304 437Q196 437 154 340Q139 305 139 256T154 171T192 115Z" />
<glyph unicode="p" glyph-name="p" horiz-adv-x="631" d="M170 444Q244 520 341 520T507 451Q583 375 583 255Q583 133 507 58Q437 -10 341 -10T170 66V-189Q170 -209 157 -222T125 -235T92 -222T79 -189V470Q79 489 92 502T124 515T157 502T170 470V444ZM170
150Q238 75 328 75Q442 75 480 177Q492 211 492 255Q492 341 446 390Q402 435 328 435Q238 435 170 360V150Z" />
<glyph unicode="q" glyph-name="q" horiz-adv-x="631" d="M461 66Q387 -10 290 -10Q194 -10 124 58Q48 133 48 255Q48 375 124 451Q193 520 290 520T461 444V470Q461 489 474 502T506 515T539 502T552 470V-189Q552 -209 539 -222T507 -235T474 -222T461 -189V66ZM461
360Q393 435 303 435Q189 435 152 333Q139 299 139 255Q139 169 186 120Q229 75 303 75Q393 75 461 150V360Z" />
<glyph unicode="r" glyph-name="r" horiz-adv-x="387" d="M170 426Q240 520 327 520H332Q351 520 363 507T376 475T363 444T330 432H325Q275 432 236 408T170 344V40Q170 21 157 8T124 -5Q105 -5 92 8T79 40V469Q79 488 92 501T124 515Q143 515 156 502T170 469V426Z" />
<glyph unicode="s" glyph-name="s" horiz-adv-x="480" d="M241 74Q352 74 352 145Q352 167 330 178T275 199T202 217T130 244T74 288T52 356T64 425T100 475Q153 520 247 520Q322 520 392 495Q406 490 413 479T421 455T410 429T387 417T360 422Q312 437 255 437T169
417T139 369T161 328T217 305T289 287T362 262Q440 222 440 138Q440 74 392 34Q340 -10 247 -10Q146 -10 65 35Q48 47 48 65T59 95T83 108T114 100Q172 74 241 74Z" />
<glyph unicode="t" glyph-name="t" horiz-adv-x="384" d="M292 70T303 74T328 79T353 69T364 39T344 10Q301 -10 271 -10T215 -7T167 10Q112 42 112 122V432H41Q22 432 22 451Q22 460 31 468L167 601Q176 610 184 610T197 604T203 590V510H316Q333 510 344 499T355
471Q355 454 344 443T316 432H203V130Q203 92 226 78Q239 70 265 70Z" />
<glyph unicode="u" glyph-name="u" horiz-adv-x="610" d="M276 74Q364 74 440 170V470Q440 489 453 502T486 515Q505 515 518 502T531 470V41Q531 21 518 8T486 -5Q467 -5 454 8T440 41V82Q400 40 371 23Q314 -10 263 -10T178 5T122 48Q75 103 75 186V470Q75 489
88 502T121 515Q140 515 153 502T166 470V196Q166 139 191 107T276 74Z" />
<glyph unicode="v" glyph-name="v" horiz-adv-x="530" d="M418 489Q430 515 462 515Q478 515 491 502T504 476Q504 460 499 448L325 32Q318 17 304 6T270 -5H260Q241 -5 227 6T205 32L31 448Q26 460 26 474T39 501T68 515Q100 515 112 489L265 101L418 489Z" />
<glyph unicode="w" glyph-name="w" horiz-adv-x="785" d="M675 488Q683 515 718 515Q735 515 748 502T761 476T758 453L616 37Q610 20 594 8T558 -5Q538 -5 522 7T499 38L393 369L287 38Q280 20 264 8T228 -5Q208 -5 192 7T170 37L28 453Q25 462 25 475T38 502T68
515Q103 515 111 488L228 103L344 479Q349 495 362 505T393 515Q410 515 423 505T442 479L558 103L675 488Z" />
<glyph unicode="x" glyph-name="x" horiz-adv-x="542" d="M480 70Q491 57 491 41T480 10T446 -5T410 13L268 183L134 15Q119 -5 97 -5T64 7T52 38T62 69L217 252L62 441Q51 455 51 473T64 503T98 515T132 498L272 325L411 498Q423 515 444 515T479 503T492 474T482
444L324 258L480 70Z" />
<glyph unicode="y" glyph-name="y" horiz-adv-x="533" d="M483 515T496 502T509 474T506 452L233 -204Q220 -235 191 -235Q173 -235 161 -222T148 -196T151 -175L216 -8L28 450Q24 460 24 474T37 501T66 515Q99 515 111 487L265 105L422 485Q435 515 464 515Q483
515 496 502Z" />
<glyph unicode="z" glyph-name="z" horiz-adv-x="499" d="M457 42Q457 24 445 12T414 0H102Q76 0 58 13T39 51T55 94L343 425H90Q72 425 60 437T48 467Q48 485 60 497T90 510H393Q419 510 435 495T451 455T437 413L157 85H414Q432 85 444 73T457 42Z" />
<glyph unicode="{" glyph-name="braceleft" horiz-adv-x="344" d="M117 307Q207 274 207 189V-33Q207 -52 214 -59Q228 -75 266 -75H281Q295 -75 305 -85T316 -110Q316 -124 306 -134T281 -145H269Q202 -145 169 -122Q129 -93 129 -25V186Q129 218 118 231Q97
256 37 267Q3 273 3 307Q3 341 36 347T88 361T116 380Q129 396 129 428V639Q129 737 214 754Q239 759 269 759H281Q295 759 305 749T316 724Q316 710 306 700T281 689H266Q212 689 208 660Q207 653 207 647V425Q207 340 117 307Z" />
<glyph unicode="|" glyph-name="bar" horiz-adv-x="253" d="M126 741Q143 741 155 729T167 700V-156Q167 -173 155 -184T126 -196Q109 -196 98 -185T86 -156V700Q86 717 97 729T126 741Z" />
<glyph unicode="}" glyph-name="braceright" horiz-adv-x="344" d="M227 307Q137 340 137 425V647Q137 666 130 673Q116 689 78 689H63Q49 689 39 699T28 724Q28 738 38 748T63 759H75Q142 759 175 736Q215 707 215 639V428Q215 396 226 383Q247 358 307 347Q341
341 341 307Q341 273 308 267T256 253T228 234Q215 218 215 186V-25Q215 -123 130 -140Q105 -145 75 -145H63Q49 -145 39 -135T28 -110Q28 -96 38 -86T63 -75H78Q132 -75 136 -46Q137 -39 137 -33V189Q137 274 227 307Z" />
<glyph unicode="~" glyph-name="asciitilde" horiz-adv-x="638" d="M502 315T506 326T518 351T540 366Q568 366 568 343Q568 339 567 335Q555 269 521 238T443 206T367 218T305 244T248 270T192 282Q140 282 124 228Q119 209 104 209T82 216T74 241T84 282T112
324Q152 367 196 367T274 355T337 329T394 303T444 291T477 295T495 307Z" />
<glyph unicode="&#xa0;" glyph-name="uni00A0" horiz-adv-x="260" />
<glyph unicode="&#xa1;" glyph-name="exclamdown" horiz-adv-x="259" d="M131 317Q99 317 97 288L79 -42V-141Q79 -163 94 -178T131 -193Q153 -193 167 -178T182 -141V-42L164 288Q162 317 131 317ZM72 430T89 413T131 395T173 412T191 454T174 496T132 514T90
497T72 455Z" />
<glyph unicode="&#xa2;" glyph-name="cent" horiz-adv-x="551" d="M161 484T209 502T298 520T363 516L392 601Q399 620 415 620T439 611T447 595T445 581L418 501Q449 490 474 472Q494 459 494 441T483 410T461 397Q444 397 434 403L391 423L273 79Q292 75 325
75T383 84T424 102Q445 113 458 113T483 100T494 69T471 36Q400 -10 311 -10Q279 -10 245 -2L210 -105Q204 -123 188 -123T163 -115T155 -99Q155 -88 158 -82L191 15Q126 44 85 105T44 255Q44 376 124 450Q161 484 209 502ZM135 255Q135 143 220 98L335 434Q331
435 327 435T319 435Q231 435 183 386T135 255Z" />
<glyph unicode="&#xa3;" glyph-name="sterling" horiz-adv-x="604" d="M223 118L248 119Q286 119 329 105T395 85T440 78Q475 78 492 84Q519 93 530 93T553 82T565 50Q565 16 492 -3Q465 -10 435 -10T381 -3T336 12Q280 35 242 35Q180 35 129 1Q118 -7 105 -7T80
3T69 30T84 60T115 95T145 142Q175 200 175 255Q175 281 169 307H61Q39 307 39 329Q39 339 45 345T61 352H157Q146 386 136 421T125 504T142 589T192 654Q259 708 368 708Q443 708 512 679Q542 667 542 639Q542 622 531 610T507 597Q489 597 472 603Q424 620 375
620T295 610T248 584Q216 554 216 511T228 429T251 352H428Q438 352 444 346T451 329Q451 319 445 313T428 307H261Q265 287 265 261Q265 184 223 118Z" />
<glyph unicode="&#xa4;" glyph-name="currency" horiz-adv-x="668" d="M334 112Q257 112 195 157L129 92Q116 81 101 81T76 92T66 118Q66 133 77 144L142 209Q97 273 97 349Q97 425 142 489L77 554Q66 565 66 580Q66 595 76 606T98 617Q116 617 129 606L195 541Q257
586 334 586Q411 586 473 541L539 606Q552 617 567 617T592 606T602 580Q602 565 591 554L526 489Q571 425 571 349Q571 273 526 209L591 144Q602 133 602 118Q602 103 592 92T570 81Q552 81 539 92L473 157Q411 112 334 112ZM334 505Q270 505 224 459T178 349Q178
285 224 239T334 193Q398 193 444 239T490 349Q490 413 444 459T334 505Z" />
<glyph unicode="&#xa5;" glyph-name="yen" horiz-adv-x="658" d="M329 381L502 684Q518 712 541 712T579 699T593 669T585 639L417 365H515Q531 365 541 354T552 327Q552 311 542 301T515 290H374V199H515Q531 199 541 188T552 161Q552 145 542 135T515 124H374V39Q374
20 361 7T329 -6Q311 -6 298 7T284 39V124H143Q126 124 116 134T106 161Q106 177 116 188T143 199H284V290H143Q126 290 116 300T106 327Q106 343 116 354T143 365H241L73 639Q65 652 65 669T79 699T111 712T139 704T156 684L329 381Z" />
<glyph unicode="&#xa7;" glyph-name="section" horiz-adv-x="529" d="M155 439Q91 485 91 560Q91 624 140 664Q191 708 279 708T434 681Q461 669 461 642Q461 626 449 614T424 602T396 608Q355 624 290 624Q177 624 177 554Q177 529 199 513T255 483T328 455T400
419Q479 370 479 292Q479 218 417 182Q399 171 380 165Q445 120 445 45Q445 -19 396 -60Q345 -103 252 -103Q135 -103 63 -58Q47 -48 47 -28T58 3T80 15Q92 15 107 9Q163 -19 246 -19Q359 -19 359 51Q359 75 337 91T281 122T208 150T136 186Q57 234 57 313Q57 387
118 422Q136 433 155 439ZM215 407Q141 388 141 319Q141 276 199 247Q225 234 256 223T320 198Q395 217 395 286Q395 328 336 358Q311 371 279 382T215 407Z" />
<glyph unicode="&#xa8;" glyph-name="dieresis" horiz-adv-x="400" d="M114 677Q135 677 150 662T165 626Q165 605 150 590T114 575Q93 575 78 590T63 626Q63 647 78 662T114 677ZM283 677Q304 677 319 662T334 626Q334 605 319 590T283 575Q262 575 247 590T232
626Q232 647 247 662T283 677Z" />
<glyph unicode="&#xa9;" glyph-name="copyright" horiz-adv-x="819" d="M410 -9Q336 -9 271 19T156 96T79 210T51 349Q51 423 79 488T156 602T270 679T410 707Q484 707 549 679T663 602T740 488T769 349Q769 275 741 210T664 96T550 19T410 -9ZM410 655Q346 655
291 631T193 565Q103 475 103 349Q103 223 193 133T409 43Q537 43 627 133T717 349Q717 475 627 565T410 655ZM585 251Q561 202 519 174T425 146T338 160T276 202Q223 257 223 349Q223 441 276 496T416 552Q476 552 518 524T585 447Q588 441 588 431T579 411T559
402T541 406T521 431T482 472T420 491T361 480T322 448Q290 409 290 349Q290 289 322 250Q355 207 416 207Q486 207 525 274Q538 296 554 296T579 287T588 268T585 251Z" />
<glyph unicode="&#xaa;" glyph-name="ordfeminine" horiz-adv-x="485" d="M377 285Q388 285 396 277T405 257Q405 246 397 238T377 229H94Q83 229 75 237T66 257Q66 268 74 276T94 285H377ZM318 387Q275 339 197 339Q150 339 116 368Q81 397 81 446T120 524T242
553H318V555Q318 601 297 620T240 640Q185 640 142 624Q136 622 127 622T109 631T100 652Q100 675 124 684Q185 708 233 708T309 696T355 664Q390 627 390 569V378Q390 363 380 353T354 342Q339 342 329 352T318 378V387ZM250 499Q153 499 153 452Q153 432 167
418T216 404Q276 404 318 451V499H250Z" />
<glyph unicode="&#xab;" glyph-name="guillemotleft" horiz-adv-x="585" d="M294 85Q303 74 303 58T292 31T263 20T236 31L72 212Q54 230 54 255Q54 280 72 298L236 479Q245 490 263 490T292 479T303 452T294 425L134 255L294 85ZM502 85Q511 74 511 58T500 31T471
20T444 31L280 212Q262 230 262 255Q262 280 280 298L444 479Q453 490 471 490T500 479T511 452T502 425L342 255L502 85Z" />
<glyph unicode="&#xac;" glyph-name="logicalnot" horiz-adv-x="579" d="M471 383T483 371T496 341V205Q496 189 485 179T458 168Q442 168 432 178T421 205V311H109Q94 311 84 321T73 347Q73 362 83 372T109 383H454Q471 383 483 371Z" />
<glyph unicode="&#xae;" glyph-name="registered" horiz-adv-x="819" d="M410 708Q484 708 549 680T663 603T740 489T769 349Q769 275 741 210T664 95T550 18T410 -10Q336 -10 271 18T156 95T79 209T51 349Q51 423 79 488T156 602T270 679T410 708ZM410 42Q473
42 529 66T627 132Q717 222 717 350Q717 476 627 566T409 656Q283 656 193 566T103 350Q103 222 193 132T410 42ZM508 548T545 514T583 435T561 366T509 331Q533 323 555 294T578 206V179Q578 165 568 155T544 145Q530 145 520 155T510 179V197Q510 240 502 259Q484
299 437 299H328V178Q328 164 318 155T294 145Q280 145 271 154T261 178V502Q261 521 274 534T306 548H426Q508 548 545 514ZM423 358Q465 358 491 375T517 423T497 472T421 490H328V358H423Z" />
<glyph unicode="&#xaf;" glyph-name="overscore" horiz-adv-x="312" d="M285 648T293 640T302 618Q302 605 294 597T272 588H38Q25 588 17 596T8 618Q8 631 16 639T38 648H272Q285 648 293 640Z" />
<glyph unicode="&#xb0;" glyph-name="degree" horiz-adv-x="378" d="M189 708Q246 708 286 668T326 571Q326 513 286 474Q244 434 189 434Q133 434 93 474T52 571Q52 626 92 668Q131 708 189 708ZM189 486Q224 486 249 511T274 571Q274 606 249 631T189 656Q154
656 129 631T104 571Q104 536 129 511T189 486Z" />
<glyph unicode="&#xb1;" glyph-name="plusminus" horiz-adv-x="606" d="M505 77Q522 77 533 66T544 38Q544 21 533 11T505 0H100Q83 0 73 10T62 38Q62 55 72 66T100 77H505ZM100 342Q83 342 73 352T62 380Q62 397 72 408T100 419H264V577Q264 594 275 605T303
616Q320 616 331 605T342 577V419H505Q522 419 533 408T544 380Q544 363 533 353T505 342H342V184Q342 167 331 156T303 145Q286 145 275 156T264 184V342H100Z" />
<glyph unicode="&#xb2;" glyph-name="twosuperior" horiz-adv-x="370" d="M310 510T318 502T327 480Q327 467 319 459T297 451H77Q60 451 49 463T38 497T54 542T95 584T149 622T202 657T243 691T260 731T243 771T188 789Q129 789 87 767Q81 764 72 764T54 771T46
794T64 820Q115 850 182 850T286 817T323 733Q323 664 228 600Q203 582 179 566Q120 528 107 510H297Q310 510 318 502Z" />
<glyph unicode="&#xb3;" glyph-name="threesuperior" horiz-adv-x="370" d="M141 681Q246 681 246 739Q246 777 195 786Q181 789 160 789Q120 789 82 770Q76 767 67 767T50 774T41 796T62 822Q116 850 180 850T276 819T308 746T288 683T246 654Q322 631 322 557Q322
481 244 454Q216 445 176 445Q98 445 53 470Q36 480 36 494T45 517T61 526Q70 526 81 522Q132 507 167 507Q259 507 259 559Q259 621 147 621H136Q123 621 115 629T106 651Q106 664 114 672T136 681H141Z" />
<glyph unicode="&#xb4;" glyph-name="acute" horiz-adv-x="240" d="M106 703Q116 722 136 722Q176 722 176 685Q176 671 166 660L97 578Q88 567 76 567T56 574T48 591Q48 606 55 613L106 703Z" />
<glyph unicode="&#xb5;" glyph-name="mu" horiz-adv-x="604" d="M285 74Q373 74 449 170V470Q449 489 462 502T495 515Q514 515 527 502T540 470V41Q540 21 527 8T495 -5Q476 -5 463 8T449 41V82Q407 37 380 22Q327 -10 272 -10T175 17V-173Q175 -192 162 -205T129
-218Q110 -218 97 -205T84 -173V470Q84 489 97 502T130 515Q149 515 162 502T175 470V196Q175 139 200 107T285 74Z" />
<glyph unicode="&#xb6;" glyph-name="paragraph" horiz-adv-x="732" d="M665 698T676 687T688 658Q688 641 677 630T648 619H602V-184Q602 -201 591 -212T562 -224Q545 -224 534 -213T523 -184V619H411V-184Q411 -201 400 -212T371 -224Q354 -224 343 -213T332
-184V184H296Q189 184 114 259T39 441Q39 548 114 623T296 698H648Q665 698 676 687Z" />
<glyph unicode="&#xb7;" glyph-name="middot" horiz-adv-x="260" d="M158 344T174 328T191 288V282Q191 259 175 243T135 226H125Q102 226 86 242T69 282V288Q69 311 85 327T125 344H135Q158 344 174 328Z" />
<glyph unicode="&#xb8;" glyph-name="cedilla" horiz-adv-x="307" d="M133 -178Q190 -178 190 -132Q190 -117 180 -109T156 -101Q132 -101 120 -107Q104 -115 99 -115T88 -111T82 -99T86 -85L150 17H192L146 -63Q162 -59 188 -59T235 -78T257 -129Q257 -221 146
-221Q98 -221 56 -195Q45 -190 45 -178Q45 -158 64 -158Q68 -158 74 -161Q105 -178 133 -178Z" />
<glyph unicode="&#xb9;" glyph-name="onesuperior" horiz-adv-x="370" d="M295 510T303 502T312 480Q312 467 304 459T282 451H108Q95 451 87 459T79 480Q79 493 87 501T108 510H168V775L123 753Q115 749 106 749T87 757T78 781T97 807L169 844Q179 849 194 849T220
837T232 806V510H282Q295 510 303 502Z" />
<glyph unicode="&#xba;" glyph-name="ordmasculine" horiz-adv-x="514" d="M256 708Q297 708 330 695T386 657Q435 607 435 524Q435 441 386 390Q337 339 257 339T128 390Q79 441 79 524Q79 607 128 657Q177 708 256 708ZM257 403Q324 403 353 469Q363 492 363
525Q363 584 328 618Q300 645 257 645Q215 645 186 618Q151 585 151 525Q151 464 186 431Q214 403 257 403ZM416 285Q427 285 435 277T444 257Q444 246 436 238T416 229H98Q87 229 79 237T70 257Q70 268 78 276T98 285H416Z" />
<glyph unicode="&#xbb;" glyph-name="guillemotright" horiz-adv-x="585" d="M304 20T293 31T282 58T291 85L451 255L291 425Q282 435 282 451T293 479T322 490T349 479L513 298Q531 280 531 255Q531 230 513 212L349 31Q340 20 322 20ZM96 20T85 31T74 58T83
85L243 255L83 425Q74 435 74 451T85 479T114 490T141 479L305 298Q323 280 323 255Q323 230 305 212L141 31Q132 20 114 20Z" />
<glyph unicode="&#xbc;" glyph-name="onequarter" horiz-adv-x="940" d="M837 155Q850 155 858 147T867 125Q867 112 859 104T837 96H801V27Q801 13 792 4T769 -5Q755 -5 746 4T737 27V96H581Q564 96 552 108T539 137T550 167L715 375Q733 396 751 396H759Q777
396 789 384T801 354V155H837ZM737 155V317L610 155H737ZM290 -10Q281 -24 265 -24T238 -15T228 6T233 28L647 710Q656 724 672 724T699 715T709 694T704 672L290 -10ZM289 369Q302 369 310 361T319 339Q319 326 311 318T289 310H115Q102 310 94 318T86 339Q86
352 94 360T115 369H175V634L130 612Q122 608 113 608T94 616T85 640T104 666L176 703Q186 708 201 708T227 696T239 665V369H289Z" />
<glyph unicode="&#xbd;" glyph-name="onehalf" horiz-adv-x="940" d="M283 369Q296 369 304 361T313 339Q313 326 305 318T283 310H109Q96 310 88 318T80 339Q80 352 88 360T109 369H169V634L124 612Q116 608 107 608T88 616T79 640T98 666L170 703Q180 708 195
708T221 696T233 665V369H283ZM284 -10Q275 -24 259 -24T232 -15T222 6T227 28L641 710Q650 724 666 724T693 715T703 694T698 672L284 -10ZM835 59Q848 59 856 51T865 29Q865 16 857 8T835 0H615Q598 0 587 12T576 46T592 91T633 133T687 171T740 206T781 240T798
280T781 320T726 338Q667 338 625 316Q619 313 610 313T592 320T584 343T602 369Q653 399 720 399T824 366T861 282Q861 213 766 148Q741 131 717 116Q658 77 645 59H835Z" />
<glyph unicode="&#xbe;" glyph-name="threequarters" horiz-adv-x="940" d="M851 155Q864 155 872 147T881 125Q881 112 873 104T851 96H815V27Q815 13 806 4T783 -5Q769 -5 760 4T751 27V96H595Q578 96 566 108T553 137T564 167L729 375Q747 396 765 396H773Q791
396 803 384T815 354V155H851ZM751 155V317L624 155H751ZM304 -10Q295 -24 279 -24T252 -15T242 6T247 28L661 710Q670 724 686 724T713 715T723 694T718 672L304 -10ZM168 540Q273 540 273 598Q273 636 222 646Q208 648 188 648Q147 648 109 629Q103 626 94 626T77
633T68 655T90 680Q143 709 207 709T303 678T335 605T315 542T273 513Q349 490 349 416Q349 340 271 314Q243 304 203 304Q125 304 80 329Q63 339 63 353T72 376T88 385Q97 385 108 382Q159 366 194 366Q286 366 286 418Q286 480 174 480H163Q150 480 142 488T133
510Q133 523 141 531T163 540H168Z" />
<glyph unicode="&#xbf;" glyph-name="questiondown" horiz-adv-x="488" d="M130 -4Q130 -113 273 -113Q351 -113 401 -80Q414 -72 428 -72T454 -83T466 -110Q466 -135 441 -150Q363 -198 265 -198Q162 -198 102 -147Q40 -95 40 -9Q40 81 134 150Q189 191 213 230Q227
253 227 277T240 313T272 324T302 313T315 285Q315 186 222 114Q162 66 146 44T130 -4ZM332 430T315 413T273 395T231 412T213 454T230 496T272 514T314 497T332 455Z" />
<glyph unicode="&#xc0;" glyph-name="Agrave" horiz-adv-x="697" d="M257 857Q257 894 297 894Q317 894 327 875L378 785Q385 778 385 766T378 747T358 739T336 750L267 832Q257 843 257 857ZM667 60Q672 48 672 35T660 8T622 -5T584 23L519 179H179L114 23Q102
-5 76 -5T38 8T26 34T31 60L286 662Q304 703 344 703H354Q394 703 412 662L667 60ZM484 262L349 587L214 262H484Z" />
<glyph unicode="&#xc1;" glyph-name="Aacute" horiz-adv-x="697" d="M370 875Q380 894 400 894Q440 894 440 857Q440 843 430 832L361 750Q352 739 340 739T320 746T312 763Q312 778 319 785L370 875ZM667 60Q672 48 672 35T660 8T622 -5T584 23L519 179H179L114
23Q102 -5 76 -5T38 8T26 34T31 60L286 662Q304 703 344 703H354Q394 703 412 662L667 60ZM484 262L349 587L214 262H484Z" />
<glyph unicode="&#xc2;" glyph-name="Acircumflex" horiz-adv-x="697" d="M476 787Q484 779 484 768T476 747T455 738T436 745L349 819L262 745Q255 738 243 738T223 747T214 761T214 773T222 787L290 857Q310 877 330 877H368Q388 877 408 857L476 787ZM667 60Q672
48 672 35T660 8T622 -5T584 23L519 179H179L114 23Q102 -5 76 -5T38 8T26 34T31 60L286 662Q304 703 344 703H354Q394 703 412 662L667 60ZM484 262L349 587L214 262H484Z" />
<glyph unicode="&#xc3;" glyph-name="Atilde" horiz-adv-x="697" d="M489 862Q510 862 512 840Q512 805 489 776Q463 745 428 745Q398 745 364 761T312 785T276 793Q249 793 235 761Q230 743 212 743Q203 743 196 749T189 768T195 797T212 828Q235 861 273 861Q295
861 314 854T351 838T388 822T425 814T451 821T463 838Q472 862 489 862ZM667 60Q672 48 672 35T660 8T622 -5T584 23L519 179H179L114 23Q102 -5 76 -5T38 8T26 34T31 60L286 662Q304 703 344 703H354Q394 703 412 662L667 60ZM484 262L349 587L214 262H484Z"
/>
<glyph unicode="&#xc4;" glyph-name="Adieresis" horiz-adv-x="697" d="M667 60Q672 48 672 35T660 8T622 -5T584 23L519 179H179L114 23Q102 -5 76 -5T38 8T26 34T31 60L286 662Q304 703 344 703H354Q394 703 412 662L667 60ZM484 262L349 587L214 262H484ZM265
849Q286 849 301 834T316 798Q316 777 301 762T265 747Q244 747 229 762T214 798Q214 819 229 834T265 849ZM434 849Q455 849 470 834T485 798Q485 777 470 762T434 747Q413 747 398 762T383 798Q383 819 398 834T434 849Z" />
<glyph unicode="&#xc5;" glyph-name="Aring" horiz-adv-x="697" d="M348 918Q368 918 385 911T416 891Q443 863 443 824T416 758T349 730T283 757T255 824T282 890T348 918ZM349 775Q369 775 383 789T398 824Q398 844 384 858T349 873Q329 873 315 859T300 824Q300
804 314 790T349 775ZM667 60Q672 48 672 35T660 8T622 -5T584 23L519 179H179L114 23Q102 -5 76 -5T38 8T26 34T31 60L286 662Q304 703 344 703H354Q394 703 412 662L667 60ZM484 262L349 587L214 262H484Z" />
<glyph unicode="&#xc6;" glyph-name="AE" horiz-adv-x="1040" d="M945 85Q963 85 975 73T988 42Q988 24 976 12T945 0H544Q525 0 512 13T499 45V179H191L89 21Q72 -5 50 -5T15 8T2 34Q2 54 12 68L411 673Q429 698 457 698H945Q963 698 975 686T988 655Q988 637
976 625T945 613H590V392H909Q927 392 939 380T952 349Q952 331 940 319T909 307H590V85H945ZM499 613H474L245 262H499V613Z" />
<glyph unicode="&#xc7;" glyph-name="Ccedilla" horiz-adv-x="698" d="M368 -178Q425 -178 425 -132Q425 -117 415 -109T391 -101Q367 -101 355 -107Q339 -115 334 -115T323 -111T317 -99T321 -85L369 -8Q229 4 144 98Q56 196 56 349Q56 514 156 612Q253 708 406
708Q480 708 533 690T615 657T650 632T656 608T646 582T621 570T598 574Q558 595 516 608T412 621T299 600T214 542Q147 469 147 349Q147 229 214 156Q287 77 415 77Q474 77 516 90T582 115T620 128T645 117T656 90Q656 63 634 52Q588 26 536 9T411 -10L381 -63Q397
-59 423 -59T470 -78T492 -129Q492 -221 381 -221Q333 -221 291 -195Q280 -190 280 -178Q280 -158 299 -158Q303 -158 309 -161Q340 -178 368 -178Z" />
<glyph unicode="&#xc8;" glyph-name="Egrave" horiz-adv-x="638" d="M561 85T573 73T586 42Q586 24 574 12T543 0H142Q123 0 110 13T97 45V652Q97 671 110 684T142 698H543Q561 698 573 686T586 655Q586 637 574 625T543 613H188V392H507Q525 392 537 380T550
349Q550 331 538 319T507 307H188V85H543Q561 85 573 73ZM252 857Q252 894 292 894Q312 894 322 875L373 785Q380 778 380 766T373 747T353 739T331 750L262 832Q252 843 252 857Z" />
<glyph unicode="&#xc9;" glyph-name="Eacute" horiz-adv-x="638" d="M561 85T573 73T586 42Q586 24 574 12T543 0H142Q123 0 110 13T97 45V652Q97 671 110 684T142 698H543Q561 698 573 686T586 655Q586 637 574 625T543 613H188V392H507Q525 392 537 380T550
349Q550 331 538 319T507 307H188V85H543Q561 85 573 73ZM360 875Q370 894 390 894Q430 894 430 857Q430 843 420 832L351 750Q342 739 330 739T310 746T302 763Q302 778 309 785L360 875Z" />
<glyph unicode="&#xca;" glyph-name="Ecircumflex" horiz-adv-x="638" d="M561 85T573 73T586 42Q586 24 574 12T543 0H142Q123 0 110 13T97 45V652Q97 671 110 684T142 698H543Q561 698 573 686T586 655Q586 637 574 625T543 613H188V392H507Q525 392 537 380T550
349Q550 331 538 319T507 307H188V85H543Q561 85 573 73ZM476 787Q484 779 484 768T476 747T455 738T436 745L349 819L262 745Q255 738 243 738T223 747T214 761T214 773T222 787L290 857Q310 877 330 877H368Q388 877 408 857L476 787Z" />
<glyph unicode="&#xcb;" glyph-name="Edieresis" horiz-adv-x="638" d="M561 85T573 73T586 42Q586 24 574 12T543 0H142Q123 0 110 13T97 45V652Q97 671 110 684T142 698H543Q561 698 573 686T586 655Q586 637 574 625T543 613H188V392H507Q525 392 537 380T550
349Q550 331 538 319T507 307H188V85H543Q561 85 573 73ZM254 849Q275 849 290 834T305 798Q305 777 290 762T254 747Q233 747 218 762T203 798Q203 819 218 834T254 849ZM423 849Q444 849 459 834T474 798Q474 777 459 762T423 747Q402 747 387 762T372 798Q372
819 387 834T423 849Z" />
<glyph unicode="&#xcc;" glyph-name="Igrave" horiz-adv-x="285" d="M142 703Q161 703 174 690T188 657V40Q188 21 175 8T142 -5Q123 -5 110 8T97 40V657Q97 676 110 689T142 703ZM57 857Q57 894 97 894Q117 894 127 875L178 785Q185 778 185 766T178 747T158
739T136 750L67 832Q57 843 57 857Z" />
<glyph unicode="&#xcd;" glyph-name="Iacute" horiz-adv-x="285" d="M142 703Q161 703 174 690T188 657V40Q188 21 175 8T142 -5Q123 -5 110 8T97 40V657Q97 676 110 689T142 703ZM159 875Q169 894 189 894Q229 894 229 857Q229 843 219 832L150 750Q141 739 129
739T109 746T101 763Q101 778 108 785L159 875Z" />
<glyph unicode="&#xce;" glyph-name="Icircumflex" horiz-adv-x="285" d="M142 703Q161 703 174 690T188 657V40Q188 21 175 8T142 -5Q123 -5 110 8T97 40V657Q97 676 110 689T142 703ZM270 787Q278 779 278 768T270 747T249 738T230 745L143 819L56 745Q49 738
37 738T17 747T8 761T8 773T16 787L84 857Q104 877 124 877H162Q182 877 202 857L270 787Z" />
<glyph unicode="&#xcf;" glyph-name="Idieresis" horiz-adv-x="285" d="M142 703Q161 703 174 690T188 657V40Q188 21 175 8T142 -5Q123 -5 110 8T97 40V657Q97 676 110 689T142 703ZM59 849Q80 849 95 834T110 798Q110 777 95 762T59 747Q38 747 23 762T8 798Q8
819 23 834T59 849ZM228 849Q249 849 264 834T279 798Q279 777 264 762T228 747Q207 747 192 762T177 798Q177 819 192 834T228 849Z" />
<glyph unicode="&#xd0;" glyph-name="Eth" horiz-adv-x="757" d="M350 698Q517 698 616 586Q660 537 681 475T703 349Q703 286 682 224T616 112Q517 0 350 0H149Q130 0 117 13T104 45V315H50Q36 315 27 324T17 348Q17 362 26 372T50 382H104V652Q104 671 117 684T149
698H350ZM339 85Q463 85 538 158Q613 231 613 349T538 540Q463 613 339 613H195V382H312Q326 382 336 372T346 348Q346 334 336 325T312 315H195V85H339Z" />
<glyph unicode="&#xd1;" glyph-name="Ntilde" horiz-adv-x="803" d="M660 703Q679 703 692 690T706 657V60Q706 33 687 14T640 -5H628Q595 -5 575 22L188 581V40Q188 21 175 8T142 -5Q123 -5 110 8T97 40V637Q97 664 116 683T162 703H175Q206 703 230 673L615
117V657Q615 676 628 689T660 703ZM545 862Q566 862 568 840Q568 805 545 776Q519 745 484 745Q454 745 420 761T368 785T332 793Q305 793 291 761Q286 743 268 743Q259 743 252 749T245 768T251 797T268 828Q291 861 329 861Q351 861 370 854T407 838T444 822T481
814T507 821T519 838Q528 862 545 862Z" />
<glyph unicode="&#xd2;" glyph-name="Ograve" horiz-adv-x="811" d="M406 708Q564 708 660 607Q753 508 757 349Q753 190 660 91Q564 -10 406 -10Q247 -10 152 91Q57 191 55 349Q57 507 152 607Q247 708 406 708ZM406 75Q528 75 598 154Q666 230 666 349Q666 468
598 544Q528 623 406 623Q284 623 214 544Q146 468 146 349Q146 230 214 154Q284 75 406 75ZM322 857Q322 894 362 894Q382 894 392 875L443 785Q450 778 450 766T443 747T423 739T401 750L332 832Q322 843 322 857Z" />
<glyph unicode="&#xd3;" glyph-name="Oacute" horiz-adv-x="811" d="M406 708Q564 708 660 607Q753 508 757 349Q753 190 660 91Q564 -10 406 -10Q247 -10 152 91Q57 191 55 349Q57 507 152 607Q247 708 406 708ZM406 75Q528 75 598 154Q666 230 666 349Q666 468
598 544Q528 623 406 623Q284 623 214 544Q146 468 146 349Q146 230 214 154Q284 75 406 75ZM420 875Q430 894 450 894Q490 894 490 857Q490 843 480 832L411 750Q402 739 390 739T370 746T362 763Q362 778 369 785L420 875Z" />
<glyph unicode="&#xd4;" glyph-name="Ocircumflex" horiz-adv-x="811" d="M406 708Q564 708 660 607Q753 508 757 349Q753 190 660 91Q564 -10 406 -10Q247 -10 152 91Q57 191 55 349Q57 507 152 607Q247 708 406 708ZM406 75Q528 75 598 154Q666 230 666 349Q666
468 598 544Q528 623 406 623Q284 623 214 544Q146 468 146 349Q146 230 214 154Q284 75 406 75ZM533 787Q541 779 541 768T533 747T512 738T493 745L406 819L319 745Q312 738 300 738T280 747T271 761T271 773T279 787L347 857Q367 877 387 877H425Q445 877 465
857L533 787Z" />
<glyph unicode="&#xd5;" glyph-name="Otilde" horiz-adv-x="811" d="M406 708Q564 708 660 607Q753 508 757 349Q753 190 660 91Q564 -10 406 -10Q247 -10 152 91Q57 191 55 349Q57 507 152 607Q247 708 406 708ZM406 75Q528 75 598 154Q666 230 666 349Q666 468
598 544Q528 623 406 623Q284 623 214 544Q146 468 146 349Q146 230 214 154Q284 75 406 75ZM545 862Q566 862 568 840Q568 805 545 776Q519 745 484 745Q454 745 420 761T368 785T332 793Q305 793 291 761Q286 743 268 743Q259 743 252 749T245 768T251 797T268
828Q291 861 329 861Q351 861 370 854T407 838T444 822T481 814T507 821T519 838Q528 862 545 862Z" />
<glyph unicode="&#xd6;" glyph-name="Odieresis" horiz-adv-x="811" d="M406 708Q564 708 660 607Q753 508 757 349Q753 190 660 91Q564 -10 406 -10Q247 -10 152 91Q57 191 55 349Q57 507 152 607Q247 708 406 708ZM406 75Q528 75 598 154Q666 230 666 349Q666
468 598 544Q528 623 406 623Q284 623 214 544Q146 468 146 349Q146 230 214 154Q284 75 406 75ZM322 849Q343 849 358 834T373 798Q373 777 358 762T322 747Q301 747 286 762T271 798Q271 819 286 834T322 849ZM491 849Q512 849 527 834T542 798Q542 777 527 762T491
747Q470 747 455 762T440 798Q440 819 455 834T491 849Z" />
<glyph unicode="&#xd7;" glyph-name="multiply" horiz-adv-x="563" d="M59 457T69 468T96 480T124 468L281 311L438 468Q450 480 466 480T492 469T503 442Q503 427 491 415L334 258L491 101Q503 89 503 74Q503 59 493 48T466 36T438 48L281 205L124 48Q112 36
96 36T70 47T59 74Q59 89 71 101L228 258L71 415Q59 427 59 442Q59 457 69 468Z" />
<glyph unicode="&#xd8;" glyph-name="Oslash" horiz-adv-x="811" d="M178 66Q59 164 55 349Q57 507 152 607Q247 708 406 708Q511 708 594 659L634 717Q641 727 653 727T673 720T680 704T674 686L635 630Q692 582 723 510T757 349Q753 190 660 91Q564 -10 406
-10Q299 -10 219 37L179 -20Q172 -30 160 -30T140 -23T133 -7T139 11L178 66ZM543 588Q483 623 414 623T296 602T214 544Q146 468 146 349Q146 216 229 139L543 588ZM269 109Q328 75 398 75T516 96T598 154Q666 230 666 349Q666 480 584 558L269 109Z" />
<glyph unicode="&#xd9;" glyph-name="Ugrave" horiz-adv-x="758" d="M620 703Q639 703 652 690T666 657V262Q666 131 572 56Q491 -10 379 -10Q265 -10 185 56Q92 131 92 262V657Q92 676 105 689T137 703Q156 703 169 690T183 657V259Q183 170 244 119Q300 73 379
73Q458 73 514 119Q575 170 575 259V657Q575 676 588 689T620 703ZM301 857Q301 894 341 894Q361 894 371 875L422 785Q429 778 429 766T422 747T402 739T380 750L311 832Q301 843 301 857Z" />
<glyph unicode="&#xda;" glyph-name="Uacute" horiz-adv-x="758" d="M620 703Q639 703 652 690T666 657V262Q666 131 572 56Q491 -10 379 -10Q265 -10 185 56Q92 131 92 262V657Q92 676 105 689T137 703Q156 703 169 690T183 657V259Q183 170 244 119Q300 73 379
73Q458 73 514 119Q575 170 575 259V657Q575 676 588 689T620 703ZM387 875Q397 894 417 894Q457 894 457 857Q457 843 447 832L378 750Q369 739 357 739T337 746T329 763Q329 778 336 785L387 875Z" />
<glyph unicode="&#xdb;" glyph-name="Ucircumflex" horiz-adv-x="758" d="M620 703Q639 703 652 690T666 657V262Q666 131 572 56Q491 -10 379 -10Q265 -10 185 56Q92 131 92 262V657Q92 676 105 689T137 703Q156 703 169 690T183 657V259Q183 170 244 119Q300
73 379 73Q458 73 514 119Q575 170 575 259V657Q575 676 588 689T620 703ZM506 787Q514 779 514 768T506 747T485 738T466 745L379 819L292 745Q285 738 273 738T253 747T244 761T244 773T252 787L320 857Q340 877 360 877H398Q418 877 438 857L506 787Z" />
<glyph unicode="&#xdc;" glyph-name="Udieresis" horiz-adv-x="758" d="M620 703Q639 703 652 690T666 657V262Q666 131 572 56Q491 -10 379 -10Q265 -10 185 56Q92 131 92 262V657Q92 676 105 689T137 703Q156 703 169 690T183 657V259Q183 170 244 119Q300 73
379 73Q458 73 514 119Q575 170 575 259V657Q575 676 588 689T620 703ZM295 849Q316 849 331 834T346 798Q346 777 331 762T295 747Q274 747 259 762T244 798Q244 819 259 834T295 849ZM464 849Q485 849 500 834T515 798Q515 777 500 762T464 747Q443 747 428 762T413
798Q413 819 428 834T464 849Z" />
<glyph unicode="&#xdd;" glyph-name="Yacute" horiz-adv-x="645" d="M532 680Q547 703 569 703T604 690T616 660T608 630L368 295V40Q368 21 355 8T323 -5Q304 -5 291 8T277 40V295L38 630Q30 643 30 660T42 690T76 703T114 680L323 376L532 680ZM340 875Q350
894 370 894Q410 894 410 857Q410 843 400 832L331 750Q322 739 310 739T290 746T282 763Q282 778 289 785L340 875Z" />
<glyph unicode="&#xde;" glyph-name="Thorn" horiz-adv-x="671" d="M370 586Q509 586 579 514Q637 456 637 364Q637 272 579 214Q509 142 370 142H188V40Q188 21 175 8T142 -5Q123 -5 110 8T97 40V657Q97 676 110 689T142 703Q161 703 174 690T188 657V586H370ZM361
228Q464 228 510 272Q546 306 546 364Q546 457 453 488Q417 500 361 500H188V228H361Z" />
<glyph unicode="&#xdf;" glyph-name="germandbls" horiz-adv-x="610" d="M414 352Q477 336 512 302Q563 253 563 174Q563 87 504 35Q452 -10 373 -10Q309 -10 262 7Q230 18 230 45Q230 62 241 73T264 84T295 78T343 71T391 75T429 92Q472 122 472 185Q472 242
423 276Q376 309 300 309Q282 309 272 319T262 345T272 371T300 383Q362 390 397 422T433 506T399 591T304 623Q213 623 182 548Q170 520 170 475V41Q170 22 157 9T124 -4Q105 -4 92 9T79 41V486Q79 591 142 650Q203 708 305 708Q391 708 452 661Q524 607 524 512Q524
411 454 370Q434 358 414 352Z" />
<glyph unicode="&#xe0;" glyph-name="agrave" horiz-adv-x="555" d="M98 484Q182 520 272 520Q374 520 430 458Q480 404 480 323V40Q480 21 467 8T434 -5Q415 -5 402 8T389 40V66Q362 38 317 14T201 -10Q132 -10 86 30Q38 72 38 140Q38 214 94 256Q155 302 268
302H389V310Q389 377 356 405T255 434Q197 434 122 410Q114 408 104 408T83 418T72 451T98 484ZM129 150Q129 70 235 70Q282 70 322 93T389 145V229H280Q209 229 169 211T129 150ZM189 685Q189 722 229 722Q249 722 259 703L310 613Q317 606 317 594T310 575T290
567T268 578L199 660Q189 671 189 685Z" />
<glyph unicode="&#xe1;" glyph-name="aacute" horiz-adv-x="555" d="M98 484Q182 520 272 520Q374 520 430 458Q480 404 480 323V40Q480 21 467 8T434 -5Q415 -5 402 8T389 40V66Q362 38 317 14T201 -10Q132 -10 86 30Q38 72 38 140Q38 214 94 256Q155 302 268
302H389V310Q389 377 356 405T255 434Q197 434 122 410Q114 408 104 408T83 418T72 451T98 484ZM129 150Q129 70 235 70Q282 70 322 93T389 145V229H280Q209 229 169 211T129 150ZM282 703Q292 722 312 722Q352 722 352 685Q352 671 342 660L273 578Q264 567 252
567T232 574T224 591Q224 606 231 613L282 703Z" />
<glyph unicode="&#xe2;" glyph-name="acircumflex" horiz-adv-x="555" d="M98 484Q182 520 272 520Q374 520 430 458Q480 404 480 323V40Q480 21 467 8T434 -5Q415 -5 402 8T389 40V66Q362 38 317 14T201 -10Q132 -10 86 30Q38 72 38 140Q38 214 94 256Q155 302
268 302H389V310Q389 377 356 405T255 434Q197 434 122 410Q114 408 104 408T83 418T72 451T98 484ZM129 150Q129 70 235 70Q282 70 322 93T389 145V229H280Q209 229 169 211T129 150ZM400 615Q408 607 408 596T400 575T379 566T360 573L273 647L186 573Q179 566
167 566T147 575T138 589T138 601T146 615L214 685Q234 705 254 705H292Q312 705 332 685L400 615Z" />
<glyph unicode="&#xe3;" glyph-name="atilde" horiz-adv-x="555" d="M98 484Q182 520 272 520Q374 520 430 458Q480 404 480 323V40Q480 21 467 8T434 -5Q415 -5 402 8T389 40V66Q362 38 317 14T201 -10Q132 -10 86 30Q38 72 38 140Q38 214 94 256Q155 302 268
302H389V310Q389 377 356 405T255 434Q197 434 122 410Q114 408 104 408T83 418T72 451T98 484ZM129 150Q129 70 235 70Q282 70 322 93T389 145V229H280Q209 229 169 211T129 150ZM409 690Q430 690 432 668Q432 633 409 604Q383 573 348 573Q318 573 284 589T232
613T196 621Q169 621 155 589Q150 571 132 571Q123 571 116 577T109 596T115 625T132 656Q155 689 193 689Q215 689 234 682T271 666T308 650T345 642T371 649T383 666Q392 690 409 690Z" />
<glyph unicode="&#xe4;" glyph-name="adieresis" horiz-adv-x="555" d="M98 484Q182 520 272 520Q374 520 430 458Q480 404 480 323V40Q480 21 467 8T434 -5Q415 -5 402 8T389 40V66Q362 38 317 14T201 -10Q132 -10 86 30Q38 72 38 140Q38 214 94 256Q155 302
268 302H389V310Q389 377 356 405T255 434Q197 434 122 410Q114 408 104 408T83 418T72 451T98 484ZM129 150Q129 70 235 70Q282 70 322 93T389 145V229H280Q209 229 169 211T129 150ZM190 677Q211 677 226 662T241 626Q241 605 226 590T190 575Q169 575 154 590T139
626Q139 647 154 662T190 677ZM359 677Q380 677 395 662T410 626Q410 605 395 590T359 575Q338 575 323 590T308 626Q308 647 323 662T359 677Z" />
<glyph unicode="&#xe5;" glyph-name="aring" horiz-adv-x="555" d="M98 484Q182 520 272 520Q374 520 430 458Q480 404 480 323V40Q480 21 467 8T434 -5Q415 -5 402 8T389 40V66Q362 38 317 14T201 -10Q132 -10 86 30Q38 72 38 140Q38 214 94 256Q155 302 268
302H389V310Q389 377 356 405T255 434Q197 434 122 410Q114 408 104 408T83 418T72 451T98 484ZM129 150Q129 70 235 70Q282 70 322 93T389 145V229H280Q209 229 169 211T129 150ZM268 739Q288 739 305 732T336 712Q363 684 363 645T336 579T269 551T203 578T175
645T202 711T268 739ZM269 596Q289 596 303 610T318 645Q318 665 304 679T269 694Q249 694 235 680T220 645Q220 625 234 611T269 596Z" />
<glyph unicode="&#xe6;" glyph-name="ae" horiz-adv-x="904" d="M441 436Q505 520 622 520Q732 520 798 448Q861 379 861 269Q861 252 850 239T817 226H473Q491 75 650 75Q723 75 785 106Q793 110 806 110T831 99T843 74Q843 48 822 37T783 17T746 3Q701 -10 642
-10Q505 -10 439 77Q381 -10 233 -10Q150 -10 95 30Q37 71 37 140Q37 253 165 288Q208 299 267 299H388V310Q388 377 355 405T254 434Q196 434 121 410Q113 408 103 408T82 418T71 451T102 486Q181 520 270 520Q389 520 441 436ZM388 226H279Q208 226 168 210T128
150Q128 118 159 94T251 70Q344 70 376 120Q388 139 388 169V226ZM771 299Q767 371 718 410Q677 443 622 443Q567 443 526 410Q477 371 473 299H771Z" />
<glyph unicode="&#xe7;" glyph-name="ccedilla" horiz-adv-x="537" d="M272 -178Q329 -178 329 -132Q329 -117 319 -109T295 -101Q271 -101 259 -107Q243 -115 238 -115T227 -111T221 -99T225 -85L273 -7Q175 6 112 73Q46 145 46 255Q46 376 126 450Q202 520 313
520Q373 520 411 505T473 474T496 441T485 410T463 397Q446 397 428 407Q377 435 321 435Q233 435 185 386T137 255Q137 174 185 125T321 75Q360 75 385 84T426 102Q447 113 460 113T485 100T496 69T473 36Q405 -8 315 -10L285 -63Q301 -59 327 -59T374 -78T396
-129Q396 -221 285 -221Q237 -221 195 -195Q184 -190 184 -178Q184 -158 203 -158Q207 -158 213 -161Q244 -178 272 -178Z" />
<glyph unicode="&#xe8;" glyph-name="egrave" horiz-adv-x="570" d="M149 155T192 115T312 75T441 101Q459 110 472 110T497 99T509 74Q509 48 488 37T449 17T412 3Q367 -10 308 -10Q185 -10 117 59T49 255Q49 365 106 438Q170 520 288 520Q400 520 465 444Q526
373 526 268Q526 249 514 236T480 223H141Q149 155 192 115ZM288 443Q199 443 158 364Q143 336 141 297H436Q432 368 384 409Q344 443 288 443ZM209 685Q209 722 249 722Q269 722 279 703L330 613Q337 606 337 594T330 575T310 567T288 578L219 660Q209 671 209
685Z" />
<glyph unicode="&#xe9;" glyph-name="eacute" horiz-adv-x="570" d="M149 155T192 115T312 75T441 101Q459 110 472 110T497 99T509 74Q509 48 488 37T449 17T412 3Q367 -10 308 -10Q185 -10 117 59T49 255Q49 365 106 438Q170 520 288 520Q400 520 465 444Q526
373 526 268Q526 249 514 236T480 223H141Q149 155 192 115ZM288 443Q199 443 158 364Q143 336 141 297H436Q432 368 384 409Q344 443 288 443ZM296 703Q306 722 326 722Q366 722 366 685Q366 671 356 660L287 578Q278 567 266 567T246 574T238 591Q238 606 245
613L296 703Z" />
<glyph unicode="&#xea;" glyph-name="ecircumflex" horiz-adv-x="570" d="M149 155T192 115T312 75T441 101Q459 110 472 110T497 99T509 74Q509 48 488 37T449 17T412 3Q367 -10 308 -10Q185 -10 117 59T49 255Q49 365 106 438Q170 520 288 520Q400 520 465 444Q526
373 526 268Q526 249 514 236T480 223H141Q149 155 192 115ZM288 443Q199 443 158 364Q143 336 141 297H436Q432 368 384 409Q344 443 288 443ZM414 615Q422 607 422 596T414 575T393 566T374 573L287 647L200 573Q193 566 181 566T161 575T152 589T152 601T160
615L228 685Q248 705 268 705H306Q326 705 346 685L414 615Z" />
<glyph unicode="&#xeb;" glyph-name="edieresis" horiz-adv-x="570" d="M149 155T192 115T312 75T441 101Q459 110 472 110T497 99T509 74Q509 48 488 37T449 17T412 3Q367 -10 308 -10Q185 -10 117 59T49 255Q49 365 106 438Q170 520 288 520Q400 520 465 444Q526
373 526 268Q526 249 514 236T480 223H141Q149 155 192 115ZM288 443Q199 443 158 364Q143 336 141 297H436Q432 368 384 409Q344 443 288 443ZM203 677Q224 677 239 662T254 626Q254 605 239 590T203 575Q182 575 167 590T152 626Q152 647 167 662T203 677ZM372
677Q393 677 408 662T423 626Q423 605 408 590T372 575Q351 575 336 590T321 626Q321 647 336 662T372 677Z" />
<glyph unicode="&#xec;" glyph-name="igrave" horiz-adv-x="257" d="M83 489T96 502T128 515T161 502T174 469V40Q174 21 161 8T129 -5T96 8T83 40V469Q83 489 96 502ZM42 685Q42 722 82 722Q102 722 112 703L163 613Q170 606 170 594T163 575T143 567T121 578L52
660Q42 671 42 685Z" />
<glyph unicode="&#xed;" glyph-name="iacute" horiz-adv-x="257" d="M83 489T96 502T128 515T161 502T174 469V40Q174 21 161 8T129 -5T96 8T83 40V469Q83 489 96 502ZM145 703Q155 722 175 722Q215 722 215 685Q215 671 205 660L136 578Q127 567 115 567T95 574T87
591Q87 606 94 613L145 703Z" />
<glyph unicode="&#xee;" glyph-name="icircumflex" horiz-adv-x="257" d="M83 489T96 502T128 515T161 502T174 469V40Q174 21 161 8T129 -5T96 8T83 40V469Q83 489 96 502ZM255 615Q263 607 263 596T255 575T234 566T215 573L128 647L41 573Q34 566 22 566T2
575T-7 589T-7 601T1 615L69 685Q89 705 109 705H147Q167 705 187 685L255 615Z" />
<glyph unicode="&#xef;" glyph-name="idieresis" horiz-adv-x="257" d="M83 489T96 502T128 515T161 502T174 469V40Q174 21 161 8T129 -5T96 8T83 40V469Q83 489 96 502ZM44 677Q65 677 80 662T95 626Q95 605 80 590T44 575Q23 575 8 590T-7 626Q-7 647 8 662T44
677ZM213 677Q234 677 249 662T264 626Q264 605 249 590T213 575Q192 575 177 590T162 626Q162 647 177 662T213 677Z" />
<glyph unicode="&#xf0;" glyph-name="eth" horiz-adv-x="599" d="M396 477Q355 537 289 594L205 545Q193 539 185 539T170 546T163 566T178 587L246 627Q200 659 181 669T156 689T150 713T162 740T189 752T219 742Q273 710 322 671L390 712Q398 717 407 717T423
710T430 690T418 670L362 637Q546 469 546 274Q546 76 412 12Q364 -10 303 -10T195 8T116 61Q49 132 49 248Q49 354 110 426Q176 505 283 505Q342 505 396 477ZM297 70Q361 70 405 112Q458 161 458 252Q458 341 405 390Q362 431 297 431Q232 431 189 390Q137 342
137 252Q137 160 189 112Q233 70 297 70Z" />
<glyph unicode="&#xf1;" glyph-name="ntilde" horiz-adv-x="609" d="M334 436Q246 436 170 340V40Q170 21 157 8T124 -5Q105 -5 92 8T79 40V469Q79 489 92 502T124 515Q143 515 156 502T170 469V428Q210 470 239 487Q296 520 347 520T432 505T488 462Q535 407
535 324V40Q535 21 522 8T489 -5Q470 -5 457 8T444 40V314Q444 371 419 403T334 436ZM449 690Q470 690 472 668Q472 633 449 604Q423 573 388 573Q358 573 324 589T272 613T236 621Q209 621 195 589Q190 571 172 571Q163 571 156 577T149 596T155 625T172 656Q195
689 233 689Q255 689 274 682T311 666T348 650T385 642T411 649T423 666Q432 690 449 690Z" />
<glyph unicode="&#xf2;" glyph-name="ograve" horiz-adv-x="608" d="M304 520Q420 520 490 447Q560 373 560 255Q560 137 490 63Q420 -10 304 -10Q187 -10 118 63Q48 136 48 255Q48 374 118 447Q187 520 304 520ZM216 93T245 83T303 73T361 83T415 114Q469 163
469 256Q469 346 415 396Q370 437 304 437Q196 437 154 340Q139 305 139 256T154 171T192 115ZM218 685Q218 722 258 722Q278 722 288 703L339 613Q346 606 346 594T339 575T319 567T297 578L228 660Q218 671 218 685Z" />
<glyph unicode="&#xf3;" glyph-name="oacute" horiz-adv-x="608" d="M304 520Q420 520 490 447Q560 373 560 255Q560 137 490 63Q420 -10 304 -10Q187 -10 118 63Q48 136 48 255Q48 374 118 447Q187 520 304 520ZM216 93T245 83T303 73T361 83T415 114Q469 163
469 256Q469 346 415 396Q370 437 304 437Q196 437 154 340Q139 305 139 256T154 171T192 115ZM320 703Q330 722 350 722Q390 722 390 685Q390 671 380 660L311 578Q302 567 290 567T270 574T262 591Q262 606 269 613L320 703Z" />
<glyph unicode="&#xf4;" glyph-name="ocircumflex" horiz-adv-x="608" d="M304 520Q420 520 490 447Q560 373 560 255Q560 137 490 63Q420 -10 304 -10Q187 -10 118 63Q48 136 48 255Q48 374 118 447Q187 520 304 520ZM216 93T245 83T303 73T361 83T415 114Q469
163 469 256Q469 346 415 396Q370 437 304 437Q196 437 154 340Q139 305 139 256T154 171T192 115ZM431 615Q439 607 439 596T431 575T410 566T391 573L304 647L217 573Q210 566 198 566T178 575T169 589T169 601T177 615L245 685Q265 705 285 705H323Q343 705
363 685L431 615Z" />
<glyph unicode="&#xf5;" glyph-name="otilde" horiz-adv-x="608" d="M304 520Q420 520 490 447Q560 373 560 255Q560 137 490 63Q420 -10 304 -10Q187 -10 118 63Q48 136 48 255Q48 374 118 447Q187 520 304 520ZM216 93T245 83T303 73T361 83T415 114Q469 163
469 256Q469 346 415 396Q370 437 304 437Q196 437 154 340Q139 305 139 256T154 171T192 115ZM444 690Q465 690 467 668Q467 633 444 604Q418 573 383 573Q353 573 319 589T267 613T231 621Q204 621 190 589Q185 571 167 571Q158 571 151 577T144 596T150 625T167
656Q190 689 228 689Q250 689 269 682T306 666T343 650T380 642T406 649T418 666Q427 690 444 690Z" />
<glyph unicode="&#xf6;" glyph-name="odieresis" horiz-adv-x="608" d="M304 520Q420 520 490 447Q560 373 560 255Q560 137 490 63Q420 -10 304 -10Q187 -10 118 63Q48 136 48 255Q48 374 118 447Q187 520 304 520ZM216 93T245 83T303 73T361 83T415 114Q469
163 469 256Q469 346 415 396Q370 437 304 437Q196 437 154 340Q139 305 139 256T154 171T192 115ZM220 677Q241 677 256 662T271 626Q271 605 256 590T220 575Q199 575 184 590T169 626Q169 647 184 662T220 677ZM389 677Q410 677 425 662T440 626Q440 605 425
590T389 575Q368 575 353 590T338 626Q338 647 353 662T389 677Z" />
<glyph unicode="&#xf7;" glyph-name="divide" horiz-adv-x="712" d="M356 197Q377 197 392 182T407 146Q407 125 392 110T356 95Q335 95 320 110T305 146Q305 167 320 182T356 197ZM356 465Q335 465 320 480T305 516Q305 537 320 552T356 567Q377 567 392 552T407
516Q407 495 392 480T356 465ZM598 372Q615 372 627 360T639 331Q639 314 627 303T598 291H113Q96 291 85 302T73 331Q73 348 84 360T113 372H598Z" />
<glyph unicode="&#xf8;" glyph-name="oslash" horiz-adv-x="608" d="M130 51Q48 125 48 255Q48 374 118 447Q187 520 304 520Q374 520 436 488L465 529Q472 539 484 539T504 532T511 516T505 498L477 458Q560 385 560 255Q560 137 490 63Q420 -10 304 -10Q229
-10 171 22L141 -21Q134 -31 122 -31T102 -24T95 -8T101 10L130 51ZM182 125L386 416Q347 437 311 437T246 428T192 396Q139 346 139 259T182 125ZM222 94Q260 73 296 73T361 83T415 114Q469 163 469 256Q469 335 426 385L222 94Z" />
<glyph unicode="&#xf9;" glyph-name="ugrave" horiz-adv-x="610" d="M276 74Q364 74 440 170V470Q440 489 453 502T486 515Q505 515 518 502T531 470V41Q531 21 518 8T486 -5Q467 -5 454 8T440 41V82Q400 40 371 23Q314 -10 263 -10T178 5T122 48Q75 103 75 186V470Q75
489 88 502T121 515Q140 515 153 502T166 470V196Q166 139 191 107T276 74ZM217 685Q217 722 257 722Q277 722 287 703L338 613Q345 606 345 594T338 575T318 567T296 578L227 660Q217 671 217 685Z" />
<glyph unicode="&#xfa;" glyph-name="uacute" horiz-adv-x="610" d="M276 74Q364 74 440 170V470Q440 489 453 502T486 515Q505 515 518 502T531 470V41Q531 21 518 8T486 -5Q467 -5 454 8T440 41V82Q400 40 371 23Q314 -10 263 -10T178 5T122 48Q75 103 75 186V470Q75
489 88 502T121 515Q140 515 153 502T166 470V196Q166 139 191 107T276 74ZM319 703Q329 722 349 722Q389 722 389 685Q389 671 379 660L310 578Q301 567 289 567T269 574T261 591Q261 606 268 613L319 703Z" />
<glyph unicode="&#xfb;" glyph-name="ucircumflex" horiz-adv-x="610" d="M276 74Q364 74 440 170V470Q440 489 453 502T486 515Q505 515 518 502T531 470V41Q531 21 518 8T486 -5Q467 -5 454 8T440 41V82Q400 40 371 23Q314 -10 263 -10T178 5T122 48Q75 103
75 186V470Q75 489 88 502T121 515Q140 515 153 502T166 470V196Q166 139 191 107T276 74ZM430 615Q438 607 438 596T430 575T409 566T390 573L303 647L216 573Q209 566 197 566T177 575T168 589T168 601T176 615L244 685Q264 705 284 705H322Q342 705 362 685L430
615Z" />
<glyph unicode="&#xfc;" glyph-name="udieresis" horiz-adv-x="610" d="M276 74Q364 74 440 170V470Q440 489 453 502T486 515Q505 515 518 502T531 470V41Q531 21 518 8T486 -5Q467 -5 454 8T440 41V82Q400 40 371 23Q314 -10 263 -10T178 5T122 48Q75 103 75
186V470Q75 489 88 502T121 515Q140 515 153 502T166 470V196Q166 139 191 107T276 74ZM219 677Q240 677 255 662T270 626Q270 605 255 590T219 575Q198 575 183 590T168 626Q168 647 183 662T219 677ZM388 677Q409 677 424 662T439 626Q439 605 424 590T388 575Q367
575 352 590T337 626Q337 647 352 662T388 677Z" />
<glyph unicode="&#xfd;" glyph-name="yacute" horiz-adv-x="533" d="M483 515T496 502T509 474T506 452L233 -204Q220 -235 191 -235Q173 -235 161 -222T148 -196T151 -175L216 -8L28 450Q24 460 24 474T37 501T66 515Q99 515 111 487L265 105L422 485Q435 515
464 515Q483 515 496 502ZM282 703Q292 722 312 722Q352 722 352 685Q352 671 342 660L273 578Q264 567 252 567T232 574T224 591Q224 606 231 613L282 703Z" />
<glyph unicode="&#xfe;" glyph-name="thorn" horiz-adv-x="631" d="M170 444Q244 520 341 520T507 451Q583 375 583 255Q583 133 507 58Q437 -10 341 -10T170 66V-189Q170 -209 157 -222T125 -235T92 -222T79 -189V689Q79 709 92 722T124 735T157 722T170 689V444ZM170
150Q238 75 328 75Q442 75 480 177Q492 211 492 255Q492 341 446 390Q402 435 328 435Q238 435 170 360V150Z" />
<glyph unicode="&#xff;" glyph-name="ydieresis" horiz-adv-x="533" d="M483 515T496 502T509 474T506 452L233 -204Q220 -235 191 -235Q173 -235 161 -222T148 -196T151 -175L216 -8L28 450Q24 460 24 474T37 501T66 515Q99 515 111 487L265 105L422 485Q435
515 464 515Q483 515 496 502ZM181 677Q202 677 217 662T232 626Q232 605 217 590T181 575Q160 575 145 590T130 626Q130 647 145 662T181 677ZM350 677Q371 677 386 662T401 626Q401 605 386 590T350 575Q329 575 314 590T299 626Q299 647 314 662T350 677Z" />
<glyph unicode="&#x2013;" glyph-name="endash" horiz-adv-x="684" d="M591 321T603 309T615 280Q615 263 603 252T574 240H109Q92 240 81 251T69 280Q69 297 80 309T109 321H574Q591 321 603 309Z" />
<glyph unicode="&#x2014;" glyph-name="emdash" horiz-adv-x="891" d="M798 321T810 309T822 280Q822 263 810 252T781 240H109Q92 240 81 251T69 280Q69 297 80 309T109 321H781Q798 321 810 309Z" />
<glyph unicode="&#x2018;" glyph-name="quoteleft" horiz-adv-x="255" d="M122 477Q99 477 83 493T66 533V592Q66 645 92 686Q112 716 148 738Q153 743 165 743T186 734T194 711T179 688Q157 675 143 656T128 595H132Q155 595 171 579T188 539V533Q188 510 172
494T132 477H122Z" />
<glyph unicode="&#x2019;" glyph-name="quoteright" horiz-adv-x="238" d="M158 743T174 727T191 687V628Q191 575 164 534Q145 504 109 482Q104 477 92 477T71 486T63 509T78 532Q100 545 114 564T129 625H125Q102 625 86 641T69 681V687Q69 710 85 726T125 743H135Q158
743 174 727Z" />
<glyph unicode="&#x201a;" glyph-name="quotesinglbase" horiz-adv-x="260" d="M158 115T174 99T191 59V0Q191 -53 164 -94Q145 -124 109 -146Q104 -151 92 -151T71 -142T63 -119T78 -96Q100 -83 114 -64T129 -3H125Q102 -3 86 13T69 53V59Q69 82 85 98T125 115H135Q158
115 174 99Z" />
<glyph unicode="&#x201c;" glyph-name="quotedblleft" horiz-adv-x="437" d="M303 477Q280 477 264 493T247 533V592Q247 645 274 686Q293 716 329 738Q334 743 346 743T367 734T375 711T360 688Q338 675 324 656T309 595H313Q336 595 352 579T369 539V533Q369
510 353 494T313 477H303ZM122 477Q99 477 83 493T66 533V592Q66 645 92 686Q112 716 148 738Q153 743 165 743T186 734T194 711T179 688Q157 675 143 656T128 595H132Q155 595 171 579T188 539V533Q188 510 172 494T132 477H122Z" />
<glyph unicode="&#x201d;" glyph-name="quotedblright" horiz-adv-x="420" d="M135 743Q158 743 174 727T191 687V628Q191 575 164 534Q145 504 109 482Q104 477 92 477T71 486T63 509T78 532Q100 545 114 564T129 625H125Q102 625 86 641T69 681V687Q69 710 85
726T125 743H135ZM316 743Q339 743 355 727T372 687V628Q372 575 346 534Q326 504 290 482Q285 477 273 477T252 486T244 509T259 532Q281 545 295 564T310 625H306Q283 625 267 641T250 681V687Q250 710 266 726T306 743H316Z" />
<glyph unicode="&#x201e;" glyph-name="quotedblbase" horiz-adv-x="442" d="M135 115Q158 115 174 99T191 59V0Q191 -53 164 -94Q145 -124 109 -146Q104 -151 92 -151T71 -142T63 -119T78 -96Q100 -83 114 -64T129 -3H125Q102 -3 86 13T69 53V59Q69 82 85 98T125
115H135ZM316 115Q339 115 355 99T372 59V0Q372 -53 346 -94Q326 -124 290 -146Q285 -151 273 -151T252 -142T244 -119T259 -96Q281 -83 295 -64T310 -3H306Q283 -3 267 13T250 53V59Q250 82 266 98T306 115H316Z" />
<glyph unicode="&#x2022;" glyph-name="bullet" horiz-adv-x="377" d="M188 526Q216 526 240 516T282 487Q321 448 321 393Q321 338 282 299T189 260Q134 260 95 299T56 393Q56 448 95 487T188 526Z" />
<glyph unicode="&#x2039;" glyph-name="guilsinglleft" horiz-adv-x="377" d="M294 85Q303 74 303 58T292 31T263 20T236 31L72 212Q54 230 54 255Q54 280 72 298L236 479Q245 490 263 490T292 479T303 452T294 425L134 255L294 85Z" />
<glyph unicode="&#x203a;" glyph-name="guilsinglright" horiz-adv-x="377" d="M96 20T85 31T74 58T83 85L243 255L83 425Q74 435 74 451T85 479T114 490T141 479L305 298Q323 280 323 255Q323 230 305 212L141 31Q132 20 114 20Z" />
</font>
</defs>
</svg>
